<svg xmlns="http://www.w3.org/2000/svg" viewBox="0 0 499.77 482"><defs><style>.cls-1{fill:#171717;}.cls-10,.cls-2,.cls-4,.cls-6,.cls-7,.cls-8,.cls-9{fill:none;}.cls-10,.cls-11,.cls-2,.cls-4,.cls-6,.cls-7,.cls-8,.cls-9{stroke:#2f2f2f;}.cls-2{stroke-linejoin:round;}.cls-10,.cls-11,.cls-2,.cls-4,.cls-6,.cls-7{stroke-width:2px;}.cls-3{fill:#2f2f2f;}.cls-11,.cls-4,.cls-7,.cls-9{stroke-miterlimit:10;}.cls-11,.cls-5{fill:#ff1e56;}.cls-10,.cls-11,.cls-7,.cls-9{stroke-linecap:round;}</style></defs><title>about</title><g id="Warstwa_2" data-name="Warstwa 2"><g id="Layer_1" data-name="Layer 1"><path class="cls-1" d="M219.36,101.59c2,.84-2,13.18-8.15,13.93-1.72-2.43-1.37-4.06-1.37-4.06s.46-9.89,5.89-10.57C219.1,100.85,217.41,100.76,219.36,101.59Z"/><path class="cls-2" d="M254.81,62.89c-6.17-10-13.38-19.24-20.35-28.65,0,0,4.45,9.92-1.9,25.71v0l0,.21.32.11c7.29,16.47,2.43,25.42,1.11,27.38l0,.08c.46,7.31-4.88,16.32-5.8,17.81a0,0,0,0,0,.07.06C241.53,95.88,241.81,85,241.81,85c.31,8.49-8.08,22-8.08,22,16.11-11.72,16.46-24.65,15.08-27.12,5,9,0,19.64,0,19.64,10-7.64,7-17.64,7-17.64a16.7,16.7,0,0,1,3,9C264.81,78.89,254.81,62.89,254.81,62.89Z"/><path class="cls-2" d="M140.1,114a20.82,20.82,0,0,1-4.32,8.45,25.29,25.29,0,0,0,5.79.7s-2.86,20.72,5.29,29.58c11.44,12.43,24.28,26.37,36,33.73s17.41,2.71,19.13-2.71a41.25,41.25,0,0,1,4-8.92c1.77-5.41,9.8-6,9.8-6,3.33-5.76,1.86-9.71,1.86-9.71a7.37,7.37,0,0,0,5.62-3.69,18.66,18.66,0,0,1-1.48-7.46c10.78-1.74,16.74-4.72,16.74-4.72s-10.44-17.14-12.16-28.72c0,0,0-18.14,7.36-26.5,0,0,7.51-9-.81-27.8l-.44-.15c-3.16,7.78-9,17-19.2,27.12,0,0,2.07-2.65,2-7.86,0,0-3.65,12-47.26,6,0,0,12.52-12.83,13.13-23.44,0,0-6.17,13.84-23.87,22.33,0,0-5.56,2.53-6.17,20.31"/><path class="cls-3" d="M221.36,77.31s7.26,2.54,9.08,5.64c-.29,2.29-4.36,4.86-4.36,4.86a13.94,13.94,0,0,1-4-4.46,7.1,7.1,0,0,0-4.3-.46h-2Z"/><path class="cls-4" d="M315.64,342.31s-3.92,2.66-.17,4a35.27,35.27,0,0,1,21.86-9.15c8.23-.45,11.26-2.38,12.22-4.25C341.49,332.37,327.1,331.44,315.64,342.31Z"/><path class="cls-5" d="M485.12,257.31,434.63,394.6c-.53,1.47-.66,3.11.83,3.62l5.44,2.86c1.49.52,1.51-2.11,2-3.58l51.57-136.1a2.81,2.81,0,0,0-1.73-3.61l-4-2.22A2.88,2.88,0,0,0,485.12,257.31Z"/><path class="cls-2" d="M327.83,369.64A34.3,34.3,0,0,1,339,375.13a25.52,25.52,0,0,1,8,3.69c4.47,2.8,4.92.78,4.65-1.07C346.29,373.82,337.58,367.7,327.83,369.64Z"/><path class="cls-6" d="M213.17,156a18.84,18.84,0,0,0-10.87-3.86"/><path class="cls-6" d="M219.92,142.18s-3.07-1.65,1-1.22a21.13,21.13,0,0,1,4.46,1.1"/><path class="cls-6" d="M129.55,89c-2.81-7.27,2.34-15,6.42-14.53,3.79.73,3.89,5.67,3.89,5.67"/><path class="cls-4" d="M124.4,253.74c-12.93-52.7-53.52-37.8-53.52-37.8s-22.27,8.4-28.3,31.36c-5.2,19.76,11.57,83,15.43,97.1a3.63,3.63,0,0,0,3.69,2.66,199.73,199.73,0,0,0,35.45-5.18c15.61-3.9,35.65-12.4,42.94-15.61a3.61,3.61,0,0,0,2-4.22Z"/><path class="cls-7" d="M383.05,481h-220s-4.19-39.45-5.26-70.86c-59.68-13.59-77-58.95-79-64.73a178.3,178.3,0,0,0,18.34-3.5c13.6-3.4,30.56-10.29,39.52-14.13l.38.75s2.45,14.18,21.57,26.61c.2-2.9.42-5.8.68-8.71,19.94-49.14-2.3-116.49-2.3-116.49-1-3.39-3.54-12.59-3.54-12.59a73,73,0,0,0,4.31-13.39,2.53,2.53,0,0,0-.75-2.44C123.57,170.35,94.59,157.41,88.84,155a1,1,0,0,0-1.3.58c-.78,2.28-3.66,8.26-13.83,16.16,0,0-27.2,19-36.55,35.29s-21.27,24-28.67,131.86c0,0-1,14.76-1.79,24.44C5.85,374.36,1,481,1,481"/><path class="cls-1" d="M331.28,403.54H282.76c-1.9,0-3.84-.12-5.74,0-3,.19-2.38,3.65-2.38,5.79,0,1-.2,2.07.78,2.74a4.21,4.21,0,0,0,2.3.59c3.24.09,6.5,0,9.74,0H426.53c1,0,2.48-.27,2.94-1.32a7,7,0,0,0,.11-2.54c0-1.09,0-2.18,0-3.28,0-1.29-.5-2-1.9-2"/><path class="cls-4" d="M247,373.39s23.23,3.13,52.8-7.24a123.47,123.47,0,0,0,12.65-7.65c31.35-3.64,41.94-14.6,30.94-13.14-40,5.34-27.7-3.05-27.7-3.05,19.47-18.46,47.42-2.87,38.35-12.85-6.59-7.25-37.85-6.13-54.21,7.52-20,16.71-17.11,16.06-84.46,17.07-26.16.4-43.13-6.29-53.83-13.64-.67,2-1.39,4-2.19,6-.26,2.91-.48,5.81-.68,8.71C174.28,365.29,201.12,374.3,247,373.39Z"/><path class="cls-4" d="M146.86,152.77c-8.15-8.86-5.29-29.58-5.29-29.58a25.18,25.18,0,0,1-5.78-.71c-3.27,3.93-8.89,7.83-18.4,8.13-5.47.18-6.43-.39-6.43-.39-1.19,6-18.4,26.3-18.4,26.3l.68.47c9.49,4.43,30.41,15.52,54.83,36.5,7.42-15.67,12.45-18.58,12.45-18.58l12,3.77C163.85,171.22,155,161.62,146.86,152.77Z"/><path class="cls-8" d="M202.41,101.57a43.6,43.6,0,0,0,9.77,14.68"/><path class="cls-9" d="M212,116s-7.17-7.49-9.58-14.43h0s15.46-3.43,17.75,1.43"/><path class="cls-10" d="M201.27,101.3s14.43-2.86,19.48,1.54a4.87,4.87,0,0,1-.86,2.27"/><path d="M213.24,109.49c.7.15,1.57-.71,1.93-1.9s.1-2.29-.6-2.43-1.56.71-1.93,1.9S212.54,109.35,213.24,109.49Z"/><path class="cls-1" d="M496.25,254.13l-1.45-.61c-1.57-.58-5.35-1.55-5.93,0L432.66,406.62H269.27c-1.67,0-2.86,2.38-2.86,4.05v1.24c0,1.67,1.35,2,3,2H435.54a4.67,4.67,0,0,0,4.08-3.05L498,258A3,3,0,0,0,496.25,254.13Z"/><path class="cls-4" d="M216.81,19.89c19.22,9.6,23,14.67,23,14.67S224.22,1.62,173.26,1s-69,20.41-69,20.41S93.58,31,96.87,57.84,106,100.29,106,100.29s6.58,19.8,6.12,24.1a20.81,20.81,0,0,1-1.17,5.83s1,.57,6.43.39C137,130,140.1,114,140.1,114c-11.41,6.63-18.6-22.38-18.63-29.55,0,0-.49-18.54,13.74-19.82C148.13,63.5,146.35,83,146.35,83c-.6,18.37,4.76,21.58,4.76,21.58.61-17.78,6.17-20.31,6.17-20.31,17.7-8.49,23.87-22.33,23.87-22.33C180.54,72.55,168,85.38,168,85.38c43.61,6,47.26-6,47.26-6,.07,5.21-2,7.86-2,7.86,31.17-30.87,21.18-53,21.18-53S223.89,23.53,216.81,19.89Z"/><path class="cls-4" d="M357.35,378.89c-1.12-8.12-18.8-28.1-54.79-13.76-30.89,11.59-55.61,8.26-55.61,8.26-101.82,2-109.9-44.89-109.9-44.89l-.38-.75c-9,3.84-25.92,10.73-39.52,14.13a178.3,178.3,0,0,1-18.34,3.5c2.39,6.95,27,71.17,120.74,68.49,0,0,46.92-1.21,86.56-19.4,0,0,39.37-15.6,43.84-1,6.9,10.93,9-9.11-5.73-13,0,0,7.63-5.16,19,9.39,6.7,8.52,8.3-13.29-15.44-20.29C344.68,366.29,358.47,387,357.35,378.89Z"/><line class="cls-11" x1="397.42" y1="481" x2="488.91" y2="480.97"/><path class="cls-4" d="M494.68,422.89H248.35c-2.26,0-4.09-3.31-4.09-5.6s1.83-3.4,4.09-3.4H494.68c2.26,0,4.09,1.12,4.09,3.4S496.94,422.89,494.68,422.89Z"/><path class="cls-4" d="M306.7,429.7H280.36c-1.27,0-3.15-1.85-3.15-4.14s1.88-2.67,4.19-2.67h26.35c2.31,0,4.19.39,4.19,2.67S310.06,429.7,306.7,429.7Z"/><path class="cls-7" d="M412.33,161.76H307c-10.21,0-18.36,6.93-18.36,17.14v57.84c0,10.21,9.24,19.29,19.44,19.29h65.08c-.68,28.92,23.77,31.35,33.9,31.5a1.06,1.06,0,0,0,.54-2C390.36,275.17,392.87,256,392.87,256h20c10.21,0,18.1-9.08,18.1-19.29V178.9C430.93,168.69,422.54,161.76,412.33,161.76Z"/><polyline class="cls-7" points="341.71 188.22 325.17 206.41 341.71 222.96"/><polyline class="cls-7" points="378.1 188.22 394.64 206.41 378.1 222.96"/><line class="cls-7" x1="348.33" y1="227.92" x2="371.48" y2="184.91"/><rect class="cls-4" x="288.79" y="429.7" width="8.27" height="51.27"/><path class="cls-4" d="M458.86,429.7H432.52c-1.27,0-3.15-1.85-3.15-4.14s1.88-2.67,4.2-2.67h26.34c2.32,0,4.19.39,4.19,2.67S462.23,429.7,458.86,429.7Z"/><rect class="cls-4" x="442.6" y="429.7" width="8.27" height="51.27"/></g></g></svg>