<svg xmlns="http://www.w3.org/2000/svg" viewBox="0 0 323.47 312"><defs><style>.cls-1{fill:#171717;}.cls-10,.cls-11,.cls-12,.cls-2,.cls-3,.cls-5,.cls-7,.cls-8,.cls-9{fill:none;}.cls-10,.cls-11,.cls-12,.cls-13,.cls-2,.cls-3,.cls-5,.cls-7,.cls-8,.cls-9{stroke:#2f2f2f;}.cls-12,.cls-2,.cls-3{stroke-linejoin:round;}.cls-2{stroke-width:1.5px;}.cls-11,.cls-12,.cls-13,.cls-3,.cls-5,.cls-7,.cls-8{stroke-width:2px;}.cls-4{fill:#2f2f2f;}.cls-10,.cls-13,.cls-5,.cls-8{stroke-miterlimit:10;}.cls-13,.cls-6{fill:#ff1e56;}.cls-10,.cls-11,.cls-12,.cls-13,.cls-8{stroke-linecap:round;}</style></defs><title>about-small</title><g id="Warstwa_2" data-name="Warstwa 2"><g id="Layer_1" data-name="Layer 1"><path class="cls-1" d="M142,66c1.26.53-1.31,8.51-5.27,9a3.67,3.67,0,0,1-.89-2.62s.3-6.39,3.81-6.83C141.85,65.49,140.76,65.43,142,66Z"/><path class="cls-2" d="M165,41.21c-4-6.44-8.69-12.66-13.19-18.74,0,0,2.88,6.4-1.22,16.6v0l0,.13.2.08c4.71,10.63,1.57,16.41.72,17.68l0,0c.29,4.72-3.16,10.55-3.75,11.5,0,0,0,.06.05,0,8.56-6.3,9.47-13.34,9.47-13.34.19,5.48-5.95,14.22-5.95,14.22C161.71,61.89,163.05,57,163.12,55.2c.51,6.82-2.09,9.43-2.09,9.43,5.49-4.88,6.56-5.95,4.42-13.43a78,78,0,0,1,3.21,7.48A21.51,21.51,0,0,0,165,41.21Z"/><path class="cls-3" d="M90.84,74a13.59,13.59,0,0,1-2.79,5.45,16.22,16.22,0,0,0,3.73.45S89.94,93.29,95.2,99c7.39,8,15.68,17,23.28,21.78s11.24,1.75,12.35-1.75a26.51,26.51,0,0,1,2.56-5.76c1.15-3.5,6.33-3.85,6.33-3.85,2.15-3.72,1.2-6.27,1.2-6.27a4.77,4.77,0,0,0,3.63-2.38,12.09,12.09,0,0,1-1-4.82,40.53,40.53,0,0,0,10.8-3s-6.74-11.07-7.85-18.54c0,0,0-11.73,4.76-17.12,0,0,4.85-5.82-.53-17.95l-.28-.11c-2.05,5-5.79,11-12.4,17.52a8.41,8.41,0,0,0,1.29-5.07s-2.36,7.72-30.52,3.84c0,0,8.08-8.28,8.47-15.13,0,0-4,8.94-15.41,14.42,0,0-3.59,1.63-4,13.12"/><path class="cls-4" d="M143.32,50.28s4.68,1.64,5.86,3.65c-.19,1.48-2.82,3.14-2.82,3.14a9.08,9.08,0,0,1-2.56-2.89,5.24,5.24,0,0,0-3-.26L140,54Z"/><path class="cls-5" d="M204.2,221.43s-2.53,1.72-.11,2.6a22.75,22.75,0,0,1,14.12-5.9c5.32-.3,7.28-1.55,7.9-2.75C220.9,215,211.61,214.41,204.2,221.43Z"/><path class="cls-6" d="M313.66,166.54,281.05,255.2c-.34.95-.42,2,.54,2.34l3.51,1.85c1,.33,1-1.36,1.32-2.32l33.3-87.89a1.8,1.8,0,0,0-1.11-2.33L316,165.41A1.86,1.86,0,0,0,313.66,166.54Z"/><path class="cls-3" d="M212.08,239.08a22.21,22.21,0,0,1,7.22,3.55,16.25,16.25,0,0,1,5.19,2.38c2.89,1.8,3.18.5,3-.7C224,241.78,218.37,237.83,212.08,239.08Z"/><path class="cls-7" d="M138,101.08a12.21,12.21,0,0,0-7-2.49"/><path class="cls-7" d="M142.39,92.18s-2-1.07.64-.79a13.34,13.34,0,0,1,2.88.71"/><path class="cls-7" d="M84,57.86c-1.81-4.7,1.51-9.67,4.15-9.39,2.45.47,2.51,3.66,2.51,3.66"/><path class="cls-5" d="M80.7,164.23c-8.35-34-34.57-24.41-34.57-24.41s-14.38,5.42-18.28,20.25c-3.35,12.76,7.48,53.62,10,62.71a2.34,2.34,0,0,0,2.38,1.72,129.32,129.32,0,0,0,22.9-3.35c10.08-2.52,23-8,27.73-10.08a2.34,2.34,0,0,0,1.32-2.73Z"/><path class="cls-8" d="M247.74,311H105.68s-2.7-25.48-3.39-45.76c-38.55-8.78-49.75-38.08-51-41.81a116.22,116.22,0,0,0,11.85-2.26c8.78-2.19,19.73-6.64,25.52-9.12l.24.48s1.59,9.16,13.94,17.19c.13-1.88.27-3.75.44-5.63,12.87-31.73-1.49-75.23-1.49-75.23-.65-2.19-2.29-8.13-2.29-8.13a47.58,47.58,0,0,0,2.79-8.65,1.67,1.67,0,0,0-.49-1.58c-21.6-20.11-40.32-28.46-44-30a.63.63,0,0,0-.84.38c-.5,1.46-2.36,5.33-8.93,10.43,0,0-17.57,12.26-23.61,22.79S10.62,149.59,5.84,219.24c0,0-.67,9.53-1.16,15.79C4.13,242.13,1,311,1,311"/><path class="cls-1" d="M214.3,261H183c-1.23,0-2.48-.08-3.7,0-1.93.13-1.54,2.36-1.54,3.74,0,.68-.14,1.34.5,1.77a2.74,2.74,0,0,0,1.48.39c2.1.05,4.2,0,6.3,0h89.81c.65,0,1.6-.18,1.9-.86a4.5,4.5,0,0,0,.07-1.64c0-.7,0-1.41,0-2.12s-.32-1.28-1.23-1.28"/><path class="cls-5" d="M159.84,241.5s15,2,34.1-4.67a79.87,79.87,0,0,0,8.17-4.94c20.25-2.35,27.09-9.43,20-8.49-25.86,3.45-17.9-2-17.9-2,12.58-11.92,30.63-1.86,24.78-8.3-4.26-4.68-24.45-4-35,4.86-12.92,10.79-11.05,10.37-54.54,11-16.9.26-27.86-4.06-34.77-8.81q-.65,2-1.41,3.87c-.17,1.88-.31,3.75-.44,5.63C112.91,236.27,130.24,242.09,159.84,241.5Z"/><path class="cls-5" d="M95.2,99c-5.26-5.73-3.42-19.11-3.42-19.11a16.19,16.19,0,0,1-3.73-.46c-2.11,2.55-5.74,5.06-11.88,5.26-3.54.11-4.16-.26-4.16-.26-.76,3.86-11.88,17-11.88,17l.44.3c6.13,2.87,19.64,10,35.41,23.57,4.79-10.12,8-12,8-12l7.75,2.44A214.84,214.84,0,0,1,95.2,99Z"/><path class="cls-9" d="M131.08,66a28.08,28.08,0,0,0,6.31,9.48"/><path class="cls-10" d="M137.26,75.27s-4.63-4.84-6.18-9.32h0s10-2.22,11.46.92"/><path class="cls-11" d="M130.34,65.78s9.32-1.85,12.58,1a3.17,3.17,0,0,1-.55,1.47"/><path d="M138.07,71.07c.46.09,1-.46,1.25-1.23s.06-1.48-.39-1.57-1,.46-1.24,1.23S137.62,71,138.07,71.07Z"/><path class="cls-1" d="M320.85,164.48l-.94-.39c-1-.38-3.45-1-3.83,0L279.78,263H174.26c-1.08,0-1.85,1.53-1.85,2.61v.8c0,1.08.88,1.29,2,1.29H281.64a3,3,0,0,0,2.63-2L322,167A2,2,0,0,0,320.85,164.48Z"/><path class="cls-12" d="M142,14.89c12.41,6.2,13.27,7.78,13.27,7.78S145.17,1.4,112.25,1,67.71,14.19,67.71,14.19s-6.92,6.17-4.79,23.52,5.9,27.41,5.9,27.41,4.25,12.79,4,15.57A13.18,13.18,0,0,1,72,84.45s.63.37,4.16.26C88.86,84.3,90.84,74,90.84,74c-7.37,4.28-12-14.46-12-19.09,0,0-.31-12,8.87-12.8C96,41.36,94.87,54,94.87,54,94.49,65.82,98,67.9,98,67.9c.39-11.49,4-13.12,4-13.12,11.43-5.48,15.41-14.42,15.41-14.42-.39,6.85-8.47,15.13-8.47,15.13,28.16,3.88,30.52-3.84,30.52-3.84a8.41,8.41,0,0,1-1.29,5.07c20.13-19.93,13.67-34.25,13.67-34.25S146.52,17.24,142,14.89Z"/><path class="cls-5" d="M231.14,245.06c-.72-5.25-12.14-18.15-35.39-8.89-19.94,7.48-35.91,5.33-35.91,5.33-65.76,1.3-71-29-71-29l-.24-.48c-5.79,2.48-16.74,6.93-25.52,9.12a116.22,116.22,0,0,1-11.85,2.26c1.55,4.49,17.44,46,78,44.24,0,0,30.3-.79,55.9-12.53,0,0,25.43-10.08,28.32-.62,4.46,7.05,5.81-5.89-3.71-8.38,0,0,4.93-3.33,12.31,6.06,4.32,5.51,5.36-8.58-10-13.1C223,236.92,231.87,250.3,231.14,245.06Z"/><line class="cls-13" x1="257.02" y1="311" x2="316.11" y2="310.98"/><path class="cls-5" d="M319.83,272.53H160.75a2.67,2.67,0,0,1,0-5.34H319.83a2.67,2.67,0,0,1,0,5.34Z"/><path class="cls-5" d="M198.43,277.87h-17a2.71,2.71,0,0,1,.67-5.34h17a2.69,2.69,0,0,1,2.71,2.67C201.82,276.67,200.6,277.87,198.43,277.87Z"/><path class="cls-8" d="M266.65,104.82h-68c-6.59,0-11.86,4.48-11.86,11.07v37.36c0,6.59,6,12.46,12.56,12.46h42c-.44,18.67,15.35,20.25,21.89,20.34a.69.69,0,0,0,.35-1.28c-11.12-6.7-9.5-19.06-9.5-19.06H267c6.6,0,11.69-5.87,11.69-12.46V115.89C278.66,109.3,273.24,104.82,266.65,104.82Z"/><polyline class="cls-8" points="221.04 121.91 210.36 133.66 221.04 144.35"/><polyline class="cls-8" points="244.54 121.91 255.22 133.66 244.54 144.35"/><line class="cls-8" x1="225.32" y1="147.55" x2="240.27" y2="119.78"/><rect class="cls-5" x="186.86" y="277.87" width="5.34" height="33.11"/><path class="cls-5" d="M296.7,277.87h-17a2.71,2.71,0,0,1,.68-5.34h17a2.68,2.68,0,0,1,2.71,2.67C300.09,276.67,298.88,277.87,296.7,277.87Z"/><rect class="cls-5" x="286.2" y="277.87" width="5.34" height="33.11"/></g></g></svg>