<svg xmlns="http://www.w3.org/2000/svg" viewBox="0 0 347 278.17"><defs><style>.cls-1,.cls-2,.cls-4,.cls-5,.cls-7{fill:none;stroke-width:2px;}.cls-1,.cls-2,.cls-4,.cls-5{stroke:#2f2f2f;}.cls-1,.cls-2{stroke-miterlimit:10;}.cls-2,.cls-5,.cls-7{stroke-linecap:round;}.cls-3{fill:#171717;}.cls-4,.cls-5,.cls-7{stroke-linejoin:round;}.cls-6{fill:#2f2f2f;}.cls-7{stroke:#ff1e56;}.cls-8{fill:#ff1e56;}</style></defs><title>hero-small</title><g id="Warstwa_2" data-name="Warstwa 2"><g id="Layer_2" data-name="Layer 2"><path class="cls-1" d="M201.71,79.88c-.33.48-.14,1.24-.71,1.29H146c-.57,0-1.12-.67-1.54-1.1a2.91,2.91,0,0,1-.46-1.9h0c1-15,14.11-27,29-27s28,12,29,27C201.81,79.12,202.09,79.41,201.71,79.88Z"/><path class="cls-2" d="M104,136.17c-1.09,1.47-5.91,8.48-7,10"/><path class="cls-2" d="M121,113.17c-4.84,6.54-6.21,8.45-11,15"/><path class="cls-2" d="M140,89.17c-1.71,2.37-12.29,15.67-14,18"/><path class="cls-2" d="M150,137.17c-2,8.35-1,1.65-3,10"/><path class="cls-2" d="M156,114.17c-2.37,10.1-2.43,11-4,17"/><path class="cls-2" d="M162,89.17c-.43,1.75-3.57,16.29-4,18"/><path class="cls-2" d="M196.59,139.89c2.41,8.28-.19-.81,1.85,7.54"/><path class="cls-2" d="M191.23,117.88c2,8.35,1.09,4.5,3.13,12.85"/><path class="cls-2" d="M184,89.17c1.19,4.79,4.81,17.26,6,22"/><path class="cls-2" d="M238.14,132.16c2.8,3.84,8.35,11.38,11.2,15.22"/><path class="cls-2" d="M222,110.17c3,4.13,9,11.87,12,16"/><path class="cls-2" d="M206,89.17c2.13,2.89,9.87,12.11,12,15"/><line class="cls-1" x1="172.97" y1="51.75" x2="172.97"/><path class="cls-3" d="M144.43,264.64c-.81,0-.81.67-.81,1.28h0a1.26,1.26,0,0,0,1.38,1.19h29.17a1.28,1.28,0,0,0,1.37-1.19h0c0-.56,0-1.23-.94-1.23a1.39,1.39,0,0,0-.43.05H145a2.74,2.74,0,0,0-.57-.1Z"/><polygon class="cls-1" points="321 248.17 325 248.17 328 271.17 324 271.17 321 248.17"/><path class="cls-1" d="M325,248.09c.1-.1.1-.24.14-.33v-.19l-.57-3.94a.87.87,0,0,0-.95-.66l-1.23.14-1.23.14c-.33.19-.48.28-.48.95L321,248a1,1,0,0,0,.14.34c.05.09.09.09.14.14"/><path class="cls-3" d="M220.5,220.1a1.73,1.73,0,0,1,1.75,1.24v-4.51a5.61,5.61,0,0,0-1.33-.19h-.47a1.3,1.3,0,0,0-1.47,1.47v.52A1.36,1.36,0,0,0,220.5,220.1Z"/><path class="cls-3" d="M222.25,241.64a1.77,1.77,0,0,1-1.75,1.23,1.3,1.3,0,0,0-1.47,1.47v.52a1.3,1.3,0,0,0,1.47,1.47H221a6.1,6.1,0,0,0,1.33-.19l-.05-4.5Z"/><path class="cls-1" d="M225.91,169.17H93A7.91,7.91,0,0,0,85,177v87.18H233.92V177a7.9,7.9,0,0,0-8-7.82Z"/><path class="cls-1" d="M174.93,192.17H115.12a4.1,4.1,0,0,0-4.12,4.08v45.83a4.11,4.11,0,0,0,4.12,4.09h59.76a4.1,4.1,0,0,0,4.12-4.09V196.25a4,4,0,0,0-4.07-4.08Z"/><line class="cls-4" x1="112" y1="201.17" x2="179" y2="201.17"/><path class="cls-2" d="M254,276.5a11.87,11.87,0,0,1,23.72,0"/><line class="cls-2" x1="64" y1="277.17" x2="330" y2="277.17"/><line class="cls-2" x1="335" y1="277.17" x2="346" y2="277.17"/><line class="cls-2" x1="12" y1="277.17" x2="1" y2="277.17"/><line class="cls-2" x1="17.27" y1="277.17" x2="59" y2="277.17"/><path class="cls-1" d="M62.11,224.17H20.89A4.67,4.67,0,0,0,16,228.56v1.21a4.65,4.65,0,0,0,4.89,4.4H62.11a4.67,4.67,0,0,0,4.89-4.4v-1.21a4.67,4.67,0,0,0-4.89-4.39Z"/><path class="cls-1" d="M60.05,244.17H24a1.86,1.86,0,0,0-1.93,2l2.42,17.31a1.89,1.89,0,0,0,1.94,1.58h31.2a1.93,1.93,0,0,0,1.94-1.58L62,246.18a1.92,1.92,0,0,0-1.94-2Z"/><line class="cls-4" x1="24" y1="234.17" x2="25" y2="244.17"/><line class="cls-4" x1="59" y1="234.17" x2="58" y2="244.17"/><polygon class="cls-4" points="26 224.17 27 219.17 43 219.17 57 219.17 58 224.17 26 224.17"/><polyline class="cls-5" points="62 199.17 45 204.17 42 219.17"/><path class="cls-4" d="M28,265.12l1.24,9.38a2.92,2.92,0,0,0,2.86,2.62l18.65.05a3,3,0,0,0,2.91-2.57L55,265.12Z"/><circle class="cls-3" cx="159.5" cy="175.67" r="3.5"/><circle class="cls-6" cx="118.27" cy="197.05" r="1.42"/><circle class="cls-6" cx="122.16" cy="197.05" r="1.42"/><circle class="cls-6" cx="125.82" cy="197.05" r="1.42"/><path class="cls-1" d="M308.16,221.17H295.84A3.86,3.86,0,0,0,292,225v.32a3.86,3.86,0,0,0,3.84,3.84h12.32a3.86,3.86,0,0,0,3.84-3.84V225a3.86,3.86,0,0,0-3.84-3.84Z"/><path class="cls-5" d="M291.25,225.17h-3.84a4.43,4.43,0,0,0-4.41,4.48v43a4.44,4.44,0,0,0,4.41,4.48h28.18a4.44,4.44,0,0,0,4.41-4.48v-43a4.43,4.43,0,0,0-4.41-4.48H311"/><path class="cls-1" d="M328.51,271.24a.74.74,0,0,0-.71-.24h0l-3.89.52h0a.77.77,0,0,0-.62.43.66.66,0,0,0,.1.71l1.47,2,1,1.38a.83.83,0,0,0,.67.33h.09a.69.69,0,0,0,.62-.48l.42-1.23,1-2.7A1,1,0,0,0,328.51,271.24Z"/><path class="cls-1" d="M301.57,232.17a4.5,4.5,0,1,0,4.56,4.5,4.55,4.55,0,0,0-4.56-4.5Z"/><line class="cls-2" x1="289" y1="247.17" x2="298" y2="247.17"/><polyline class="cls-7" points="302 257.17 304.27 259.71 311 254.17"/><line class="cls-5" x1="289" y1="257.17" x2="298" y2="257.17"/><line class="cls-2" x1="288.99" y1="268.06" x2="297.58" y2="268.06"/><polyline class="cls-7" points="302 246.17 304.27 248.99 311 244.17"/><path class="cls-3" d="M206.93,237.37a3.34,3.34,0,0,0-1.8-3.27c-.86-.48-1.24-.81-1.24-1.62v-1.37c0-1,.43-1.19,1.19-1.66a3.25,3.25,0,0,0,1.85-3.32v-3c0-2.37.85-4.18,2.14-4.89a6.14,6.14,0,0,1,3.27-1.09h.47a1.3,1.3,0,0,1,1.47,1.47v.52a1.32,1.32,0,0,1-1.47,1.47c-1.37,0-2,1-2,3v3.7a4.66,4.66,0,0,1-2.61,4.37l-.33.09v.1a2.82,2.82,0,0,1,1,.52,4.41,4.41,0,0,1,1.9,3.93v4.13c0,2,.66,2.94,2,2.94a1.31,1.31,0,0,1,1.47,1.47v.52a1.31,1.31,0,0,1-1.47,1.48h-.48a6.21,6.21,0,0,1-3.27-1.1c-1.24-.75-2.14-2.56-2.14-4.88l.05-3.51Z"/><path class="cls-6" d="M117.51,205.17h4.8a.92.92,0,0,1,.9,1h0a.92.92,0,0,1-.9,1h-4.8a.92.92,0,0,1-.9-1h0A1,1,0,0,1,117.51,205.17Z"/><path class="cls-8" d="M142.66,205.17H126.53a.92.92,0,0,0-.9,1h0a.92.92,0,0,0,.9,1h16.13a.92.92,0,0,0,.9-1h0A1,1,0,0,0,142.66,205.17Z"/><path class="cls-6" d="M117.77,210.17h25.14a.92.92,0,0,1,.9,1h0a.92.92,0,0,1-.9,1H117.77a.92.92,0,0,1-.9-1h0A1,1,0,0,1,117.77,210.17Z"/><path class="cls-8" d="M134.52,215.17H123.13a.92.92,0,0,0-.9,1h0a.92.92,0,0,0,.9,1h11.39a.92.92,0,0,0,.9-1h0A.92.92,0,0,0,134.52,215.17Z"/><path class="cls-6" d="M138.69,215.17h12.52a.92.92,0,0,1,.9,1h0a.92.92,0,0,1-.9,1H138.69a.92.92,0,0,1-.9-1h0A1,1,0,0,1,138.69,215.17Z"/><path class="cls-6" d="M130.39,220.17H156.1a.9.9,0,0,1,.9,1h0a.91.91,0,0,1-.9,1H130.39a.91.91,0,0,1-.9-1h0A.9.9,0,0,1,130.39,220.17Z"/><path class="cls-8" d="M148.89,225.17H130.34a.92.92,0,0,0-.9,1h0a.92.92,0,0,0,.9,1h18.55a.92.92,0,0,0,.9-1h0A.92.92,0,0,0,148.89,225.17Z"/><path class="cls-6" d="M123.13,230.17h28.08a.92.92,0,0,1,.9,1h0a.92.92,0,0,1-.9,1H123.13a.92.92,0,0,1-.9-1h0A1,1,0,0,1,123.13,230.17Z"/><path class="cls-6" d="M117.77,234.17H132.1a.92.92,0,0,1,.9,1h0a.92.92,0,0,1-.9,1H117.77a.92.92,0,0,1-.9-1h0A1,1,0,0,1,117.77,234.17Z"/><path class="cls-1" d="M68.66,264.17H250.34a1.66,1.66,0,0,1,1.66,1.66V267a10.19,10.19,0,0,1-10.19,10.19H77.19A10.19,10.19,0,0,1,67,267v-1.14a1.66,1.66,0,0,1,1.66-1.66Z"/><path class="cls-6" d="M218.88,183.17a2.12,2.12,0,0,1,2.12,2.12v65.76a2.12,2.12,0,0,1-2.12,2.12H101.12A2.12,2.12,0,0,1,99,251.05V185.29a2.12,2.12,0,0,1,2.12-2.12H218.88m0-2H101.12A4.11,4.11,0,0,0,97,185.29v65.76a4.11,4.11,0,0,0,4.12,4.12H218.88a4.11,4.11,0,0,0,4.12-4.12V185.29a4.11,4.11,0,0,0-4.12-4.12Z"/></g></g></svg>