<svg xmlns="http://www.w3.org/2000/svg" viewBox="0 0 387.87 311"><defs><style>.cls-1,.cls-3,.cls-4,.cls-5,.cls-7{fill:none;stroke-width:2px;}.cls-1,.cls-3,.cls-4,.cls-5{stroke:#2f2f2f;}.cls-1,.cls-4{stroke-miterlimit:10;}.cls-2{fill:#171717;}.cls-3,.cls-5,.cls-7{stroke-linejoin:round;}.cls-4,.cls-5,.cls-7{stroke-linecap:round;}.cls-6{fill:#2f2f2f;}.cls-7{stroke:#ff1e56;}.cls-8{fill:#ff1e56;}</style></defs><title>hero-small</title><g id="Warstwa_2" data-name="Warstwa 2"><g id="Layer_2" data-name="Layer 2"><path class="cls-1" d="M225.49,89.34c-.37.53-.16,1.39-.8,1.44H163.18c-.64,0-1.25-.75-1.73-1.22a3.28,3.28,0,0,1-.51-2.13h0c1.12-16.78,15.77-30.2,32.43-30.2s31.32,13.42,32.44,30.2C225.6,88.49,225.91,88.81,225.49,89.34Z"/><line class="cls-1" x1="193.34" y1="57.88" x2="193.34"/><path class="cls-2" d="M161.42,296c-.91,0-.91.74-.91,1.43h0a1.41,1.41,0,0,0,1.54,1.33h32.63a1.44,1.44,0,0,0,1.54-1.33h0c0-.63,0-1.38-1.06-1.38a1.46,1.46,0,0,0-.48.06H162.05a2.7,2.7,0,0,0-.63-.11Z"/><polygon class="cls-1" points="358.9 277.56 363.38 277.56 366.73 303.29 362.26 303.29 358.9 277.56"/><path class="cls-1" d="M363.32,277.48c.11-.11.11-.27.16-.38v-.21l-.63-4.4a1,1,0,0,0-1.07-.74l-1.37.15-1.38.16c-.38.22-.53.32-.53,1.06l.37,4.25a1,1,0,0,0,.16.37c.05.11.1.11.15.16"/><path class="cls-2" d="M246.5,246.17a2,2,0,0,1,2,1.38v-5a7,7,0,0,0-1.49-.21h-.53a1.46,1.46,0,0,0-1.64,1.64v.59A1.52,1.52,0,0,0,246.5,246.17Z"/><path class="cls-2" d="M248.46,270.26a2,2,0,0,1-2,1.38,1.46,1.46,0,0,0-1.65,1.64v.59a1.46,1.46,0,0,0,1.65,1.64H247a6.77,6.77,0,0,0,1.48-.21l0-5Z"/><path class="cls-1" d="M252.55,189.21H103.91A8.84,8.84,0,0,0,95,198v97.5H261.51V198a8.84,8.84,0,0,0-9-8.75Z"/><path class="cls-1" d="M195.53,214.93H128.64A4.58,4.58,0,0,0,124,219.5v51.26a4.59,4.59,0,0,0,4.61,4.57h66.84a4.58,4.58,0,0,0,4.6-4.57V219.5a4.5,4.5,0,0,0-4.55-4.57Z"/><line class="cls-3" x1="125.15" y1="225" x2="200.08" y2="225"/><path class="cls-4" d="M284,309.26c0-7,5.94-12.68,13.26-12.68a13,13,0,0,1,13.26,12.68"/><line class="cls-4" x1="71.46" y1="310" x2="368.97" y2="310"/><line class="cls-4" x1="374.56" y1="310" x2="386.87" y2="310"/><line class="cls-4" x1="13.3" y1="310" x2="1" y2="310"/><line class="cls-4" x1="19.19" y1="310" x2="65.87" y2="310"/><path class="cls-1" d="M69.35,250.72H23.25a5.23,5.23,0,0,0-5.47,4.92V257a5.2,5.2,0,0,0,5.47,4.92h46.1A5.24,5.24,0,0,0,74.82,257v-1.35a5.24,5.24,0,0,0-5.47-4.92Z"/><path class="cls-1" d="M67.05,273.09H26.67a2.09,2.09,0,0,0-2.17,2.25l2.71,19.36a2.12,2.12,0,0,0,2.17,1.77H64.29a2.15,2.15,0,0,0,2.16-1.77l2.77-19.36a2.15,2.15,0,0,0-2.17-2.25Z"/><line class="cls-3" x1="26.72" y1="261.91" x2="27.84" y2="273.09"/><line class="cls-3" x1="65.87" y1="261.91" x2="64.75" y2="273.09"/><polygon class="cls-3" points="28.96 250.72 30.08 245.13 47.98 245.13 63.63 245.13 64.75 250.72 28.96 250.72"/><polyline class="cls-5" points="69.23 222.76 50.21 228.35 46.86 245.13"/><path class="cls-3" d="M31.2,296.52,32.59,307a3.25,3.25,0,0,0,3.2,2.92l20.86.06a3.31,3.31,0,0,0,3.25-2.87l1.5-10.61Z"/><circle class="cls-2" cx="178.27" cy="196.48" r="3.91"/><circle class="cls-6" cx="132.16" cy="220.39" r="1.59"/><circle class="cls-6" cx="136.51" cy="220.39" r="1.59"/><circle class="cls-6" cx="140.6" cy="220.39" r="1.59"/><path class="cls-1" d="M344.55,247.37H330.76a4.31,4.31,0,0,0-4.29,4.29V252a4.31,4.31,0,0,0,4.29,4.29h13.79a4.31,4.31,0,0,0,4.29-4.29v-.36a4.31,4.31,0,0,0-4.29-4.29Z"/><path class="cls-5" d="M325.64,251.84h-4.3a5,5,0,0,0-4.94,5V305a5,5,0,0,0,4.94,5h31.51a5,5,0,0,0,4.94-5V256.91a5,5,0,0,0-4.94-5h-5.14"/><path class="cls-1" d="M367.3,303.37a.82.82,0,0,0-.79-.27h0l-4.35.58h0a.86.86,0,0,0-.69.48.73.73,0,0,0,.1.8l1.65,2.28,1.11,1.54a.94.94,0,0,0,.74.37h.11a.76.76,0,0,0,.69-.53l.48-1.38,1.11-3A1.07,1.07,0,0,0,367.3,303.37Z"/><path class="cls-1" d="M337.17,259.67a5,5,0,1,0,5.11,5,5.1,5.1,0,0,0-5.11-5Z"/><line class="cls-4" x1="323.11" y1="276.45" x2="333.18" y2="276.45"/><polyline class="cls-7" points="337.65 287.63 340.19 290.47 347.72 284.28"/><line class="cls-5" x1="323.11" y1="287.63" x2="333.18" y2="287.63"/><line class="cls-4" x1="323.11" y1="299.81" x2="332.71" y2="299.81"/><polyline class="cls-7" points="337.65 275.33 340.19 278.48 347.72 273.09"/><path class="cls-2" d="M231.32,265.49a3.76,3.76,0,0,0-2-3.67c-1-.53-1.38-.9-1.38-1.8v-1.54c0-1.06.48-1.32,1.32-1.85,1.38-.59,2.07-1.86,2.07-3.72v-3.34c0-2.65,1-4.67,2.39-5.47a7,7,0,0,1,3.66-1.22h.53a1.47,1.47,0,0,1,1.65,1.65v.58a1.49,1.49,0,0,1-1.65,1.65c-1.54,0-2.28,1.11-2.28,3.34v4.14a5.19,5.19,0,0,1-2.92,4.88l-.37.1v.11a3.42,3.42,0,0,1,1.12.58,5,5,0,0,1,2.12,4.41v4.61c0,2.18.74,3.29,2.28,3.29a1.46,1.46,0,0,1,1.64,1.65v.58a1.46,1.46,0,0,1-1.64,1.65h-.53a7.08,7.08,0,0,1-3.66-1.22c-1.38-.85-2.39-2.87-2.39-5.47l0-3.92Z"/><path class="cls-6" d="M131.32,229.47h5.35a1,1,0,0,1,1,1.12h0a1,1,0,0,1-1,1.12h-5.35a1,1,0,0,1-1-1.12h0A1.11,1.11,0,0,1,131.32,229.47Z"/><path class="cls-8" d="M159.43,229.47h-18a1,1,0,0,0-1,1.12h0a1,1,0,0,0,1,1.12h18a1,1,0,0,0,1-1.12h0A1.07,1.07,0,0,0,159.43,229.47Z"/><path class="cls-6" d="M131.6,235.06h28.12a1,1,0,0,1,1,1.12h0a1,1,0,0,1-1,1.12H131.6a1,1,0,0,1-1-1.12h0A1.07,1.07,0,0,1,131.6,235.06Z"/><path class="cls-8" d="M150.33,240.66H137.6a1,1,0,0,0-1,1.11h0a1,1,0,0,0,1,1.12h12.73a1,1,0,0,0,1-1.12h0A1,1,0,0,0,150.33,240.66Z"/><path class="cls-6" d="M155,240.66h14a1,1,0,0,1,1,1.11h0a1,1,0,0,1-1,1.12H155a1,1,0,0,1-1-1.12h0A1.06,1.06,0,0,1,155,240.66Z"/><path class="cls-6" d="M145.71,246.25h28.76a1,1,0,0,1,1,1.08h0a1,1,0,0,1-1,1.08H145.71a1,1,0,0,1-1-1.08h0A1,1,0,0,1,145.71,246.25Z"/><path class="cls-8" d="M166.41,251.84H145.66a1,1,0,0,0-1,1.12h0a1,1,0,0,0,1,1.12h20.75a1,1,0,0,0,1-1.12h0A1,1,0,0,0,166.41,251.84Z"/><path class="cls-6" d="M137.6,257.43H169a1,1,0,0,1,1,1.12h0a1,1,0,0,1-1,1.12H137.6a1,1,0,0,1-1-1.12h0A1.11,1.11,0,0,1,137.6,257.43Z"/><path class="cls-6" d="M131.6,261.91h16a1,1,0,0,1,1,1.12h0a1,1,0,0,1-1,1.11h-16a1,1,0,0,1-1-1.11h0A1.07,1.07,0,0,1,131.6,261.91Z"/><path class="cls-1" d="M76.48,295.46H280.07a1.66,1.66,0,0,1,1.66,1.66v2.68A10.19,10.19,0,0,1,271.54,310H85a10.19,10.19,0,0,1-10.19-10.19v-2.68a1.66,1.66,0,0,1,1.66-1.66Z"/><path class="cls-6" d="M245.18,204.63a2.12,2.12,0,0,1,2.12,2.12v74.53a2.12,2.12,0,0,1-2.12,2.11H112.49a2.12,2.12,0,0,1-2.12-2.11V206.75a2.12,2.12,0,0,1,2.12-2.12H245.18m0-2H112.49a4.11,4.11,0,0,0-4.12,4.12v74.53a4.11,4.11,0,0,0,4.12,4.11H245.18a4.12,4.12,0,0,0,4.12-4.11V206.75a4.12,4.12,0,0,0-4.12-4.12Z"/><path class="cls-4" d="M160.29,103.66s-34.55,44.88-36.26,47.2"/><path class="cls-4" d="M182.17,103.66s-10.51,46.07-10.94,47.78"/><path class="cls-4" d="M225.34,103.09s34.55,44.87,36.26,47.2"/><path class="cls-4" d="M203.46,103.09S214,149.16,214.4,150.86"/></g></g></svg>