<svg xmlns="http://www.w3.org/2000/svg" viewBox="0 0 600.71 482"><defs><style>.cls-1,.cls-2,.cls-4,.cls-5,.cls-7{fill:none;stroke-width:2px;}.cls-1,.cls-2,.cls-4,.cls-5{stroke:#2f2f2f;}.cls-1,.cls-2{stroke-miterlimit:10;}.cls-2,.cls-5,.cls-7{stroke-linecap:round;}.cls-3{fill:#171717;}.cls-4,.cls-5,.cls-7{stroke-linejoin:round;}.cls-6{fill:#2f2f2f;}.cls-7{stroke:#ff1e56;}.cls-8{fill:#ff1e56;}</style></defs><title>hero</title><g id="Warstwa_2" data-name="Warstwa 2"><g id="Layer_2" data-name="Layer 2"><path class="cls-1" d="M349.32,138.63c-.58.82-.25,2.15-1.24,2.23H252.63c-1,0-1.93-1.16-2.67-1.9s-.8-2.32-.8-3.31h0c1.74-26,24.48-46.85,50.33-46.85s48.59,20.82,50.33,46.85C349.49,137.3,350,137.8,349.32,138.63Z"/><path class="cls-2" d="M252.71,154s-60,78-63,82"/><path class="cls-2" d="M283.71,154s-18.25,80-19,83"/><path class="cls-2" d="M346.71,153s60,78,63,82"/><path class="cls-2" d="M316.71,153s18.26,80,19,83"/><line class="cls-1" x1="299.43" y1="89.81" x2="299.43"/><path class="cls-3" d="M249.9,459.72c-1.4,0-1.4,1.15-1.4,2.22h0a2.19,2.19,0,0,0,2.39,2.06h50.63a2.24,2.24,0,0,0,2.39-2.06h0c0-1,0-2.14-1.65-2.14a2.6,2.6,0,0,1-.74-.08H250.89a4.08,4.08,0,0,1-1,0Z"/><polygon class="cls-1" points="556.33 430.67 563.27 430.67 568.48 470.59 561.54 470.59 556.33 430.67"/><path class="cls-1" d="M563.19,430.53c.16-.16.16-.41.24-.57v-.33l-1-6.83a1.53,1.53,0,0,0-1.64-1.16l-2.14.25-2.14.25c-.58.33-.83.49-.83,1.64l.58,6.59a1.92,1.92,0,0,0,.25.58c.08.16.16.16.24.24"/><path class="cls-3" d="M381.92,382a3,3,0,0,1,3,2.14v-7.82a10,10,0,0,0-2.3-.33h-.83a2.27,2.27,0,0,0-2.55,2.55v.9A2.37,2.37,0,0,0,381.92,382Z"/><path class="cls-3" d="M385,419.34a3.08,3.08,0,0,1-3,2.14,2.27,2.27,0,0,0-2.56,2.55v.91a2.27,2.27,0,0,0,2.56,2.55h.82a11.39,11.39,0,0,0,2.3-.33l-.08-7.82Z"/><path class="cls-1" d="M391.31,295H160.68c-7.7,0-13.91,4.63-13.91,12.15V460H405.21V307.15c0-7.52-6.2-12.15-13.9-12.15Z"/><path class="cls-1" d="M302.84,333.49H199a7.12,7.12,0,0,0-7.15,7.09v79.53A7.12,7.12,0,0,0,199,427.2H302.75a7.12,7.12,0,0,0,7.15-7.09V340.58a7,7,0,0,0-7.06-7.09Z"/><line class="cls-4" x1="193.63" y1="349.11" x2="309.9" y2="349.11"/><path class="cls-2" d="M440.12,479.84c0-10.85,9.22-19.66,20.58-19.66s20.58,8.81,20.58,19.66"/><line class="cls-2" x1="110.33" y1="481" x2="571.95" y2="481"/><line class="cls-2" x1="580.63" y1="481" x2="599.71" y2="481"/><line class="cls-2" x1="20.09" y1="481" x2="1" y2="481"/><line class="cls-2" x1="29.23" y1="481" x2="101.65" y2="481"/><path class="cls-1" d="M107.05,389H35.52c-4.66,0-8.49,3.42-8.49,7.63v2.1c0,4.21,3.74,7.63,8.49,7.63h71.53c4.66,0,8.49-3.42,8.49-7.63v-2.1c0-4.21-3.83-7.63-8.49-7.63Z"/><path class="cls-1" d="M103.48,423.73H40.83a3.25,3.25,0,0,0-3.36,3.5l4.2,30A3.3,3.3,0,0,0,45,460H99.19a3.35,3.35,0,0,0,3.37-2.75l4.29-30a3.34,3.34,0,0,0-3.37-3.5Z"/><line class="cls-4" x1="40.91" y1="406.38" x2="42.65" y2="423.73"/><line class="cls-4" x1="101.65" y1="406.38" x2="99.92" y2="423.73"/><polygon class="cls-4" points="44.38 389.02 46.12 380.35 73.89 380.35 98.18 380.35 99.92 389.02 44.38 389.02"/><polyline class="cls-5" points="106.86 345.64 77.36 354.31 72.15 380.35"/><path class="cls-4" d="M47.86,460.09,50,476.37a5.06,5.06,0,0,0,5,4.54l32.36.09a5.14,5.14,0,0,0,5-4.46l2.32-16.45Z"/><circle class="cls-3" cx="276.06" cy="304.86" r="6.07"/><circle class="cls-6" cx="204.52" cy="341.96" r="2.47"/><circle class="cls-6" cx="211.27" cy="341.96" r="2.47"/><circle class="cls-6" cx="217.61" cy="341.96" r="2.47"/><path class="cls-1" d="M534.05,383.82H512.66a6.69,6.69,0,0,0-6.66,6.66V391a6.69,6.69,0,0,0,6.66,6.66h21.39a6.69,6.69,0,0,0,6.66-6.66v-.56a6.69,6.69,0,0,0-6.66-6.66Z"/><path class="cls-5" d="M504.71,390.76H498a7.71,7.71,0,0,0-7.66,7.78v74.68A7.71,7.71,0,0,0,498,481h48.9a7.7,7.7,0,0,0,7.65-7.78v-74.6a7.7,7.7,0,0,0-7.65-7.78h-8"/><path class="cls-1" d="M569.36,470.71a1.28,1.28,0,0,0-1.24-.41h0l-6.75.9h0a1.33,1.33,0,0,0-1.07.74,1.15,1.15,0,0,0,.17,1.24l2.55,3.54,1.73,2.38a1.45,1.45,0,0,0,1.15.58h.17a1.19,1.19,0,0,0,1.07-.82l.74-2.14,1.73-4.7A1.66,1.66,0,0,0,569.36,470.71Z"/><path class="cls-1" d="M522.6,402.91a7.81,7.81,0,1,0,7.93,7.81,7.9,7.9,0,0,0-7.93-7.81Z"/><line class="cls-2" x1="500.8" y1="428.94" x2="516.42" y2="428.94"/><polyline class="cls-7" points="523.36 446.29 527.29 450.7 538.98 441.09"/><line class="cls-5" x1="500.8" y1="446.29" x2="516.42" y2="446.29"/><line class="cls-2" x1="500.79" y1="465.19" x2="515.69" y2="465.19"/><polyline class="cls-7" points="523.36 427.2 527.29 432.1 538.98 423.73"/><path class="cls-3" d="M358.37,411.93c0-2.72-1-4.53-3.13-5.68-1.48-.82-2.14-1.4-2.14-2.8v-2.39c0-1.64.75-2.05,2.06-2.88,2.14-.9,3.21-2.88,3.21-5.76v-5.19c0-4.11,1.48-7.24,3.71-8.47a10.55,10.55,0,0,1,5.68-1.9h.82a2.27,2.27,0,0,1,2.55,2.55v.91a2.3,2.3,0,0,1-2.55,2.55c-2.39,0-3.54,1.73-3.54,5.19v6.42a8.06,8.06,0,0,1-4.53,7.57l-.57.17v.16a5.06,5.06,0,0,1,1.73.91c1.48.9,3.29,3,3.29,6.83v7.16c0,3.38,1.15,5.1,3.54,5.1a2.27,2.27,0,0,1,2.55,2.56v.9a2.27,2.27,0,0,1-2.55,2.55h-.82A10.91,10.91,0,0,1,362,426.5c-2.14-1.32-3.7-4.44-3.7-8.48l.08-6.09Z"/><path class="cls-6" d="M203.2,356.05h8.31a1.61,1.61,0,0,1,1.57,1.74h0a1.6,1.6,0,0,1-1.57,1.73H203.2a1.59,1.59,0,0,1-1.56-1.73h0A1.71,1.71,0,0,1,203.2,356.05Z"/><path class="cls-8" d="M246.83,356.05h-28a1.6,1.6,0,0,0-1.56,1.74h0a1.59,1.59,0,0,0,1.56,1.73h28a1.6,1.6,0,0,0,1.56-1.73h0A1.66,1.66,0,0,0,246.83,356.05Z"/><path class="cls-6" d="M203.64,364.73h43.63a1.6,1.6,0,0,1,1.57,1.73h0a1.61,1.61,0,0,1-1.57,1.74H203.64a1.6,1.6,0,0,1-1.56-1.74h0A1.65,1.65,0,0,1,203.64,364.73Z"/><path class="cls-8" d="M232.7,373.4H213a1.61,1.61,0,0,0-1.57,1.74h0a1.61,1.61,0,0,0,1.57,1.74H232.7a1.61,1.61,0,0,0,1.57-1.74h0A1.61,1.61,0,0,0,232.7,373.4Z"/><path class="cls-6" d="M240,373.4h21.73a1.6,1.6,0,0,1,1.56,1.74h0a1.6,1.6,0,0,1-1.56,1.74H240a1.61,1.61,0,0,1-1.57-1.74h0A1.66,1.66,0,0,1,240,373.4Z"/><path class="cls-6" d="M225.54,382.08h44.62a1.57,1.57,0,0,1,1.56,1.68h0a1.57,1.57,0,0,1-1.56,1.67H225.54a1.57,1.57,0,0,1-1.56-1.67h0A1.57,1.57,0,0,1,225.54,382.08Z"/><path class="cls-8" d="M257.65,390.76H225.46a1.59,1.59,0,0,0-1.56,1.73h0a1.6,1.6,0,0,0,1.56,1.74h32.19a1.6,1.6,0,0,0,1.56-1.74h0A1.6,1.6,0,0,0,257.65,390.76Z"/><path class="cls-6" d="M213,399.44h48.73a1.59,1.59,0,0,1,1.56,1.73h0a1.6,1.6,0,0,1-1.56,1.74H213a1.61,1.61,0,0,1-1.57-1.74h0A1.71,1.71,0,0,1,213,399.44Z"/><path class="cls-6" d="M203.64,406.38h24.87a1.6,1.6,0,0,1,1.56,1.73h0a1.6,1.6,0,0,1-1.56,1.74H203.64a1.6,1.6,0,0,1-1.56-1.74h0A1.65,1.65,0,0,1,203.64,406.38Z"/><path class="cls-1" d="M117.2,460H434.92a1.66,1.66,0,0,1,1.66,1.66v9.14A10.19,10.19,0,0,1,426.39,481H125.73a10.19,10.19,0,0,1-10.19-10.19v-9.14A1.66,1.66,0,0,1,117.2,460Z"/><path class="cls-6" d="M382.14,315c.81,0,2.12,2,2.12,3.52V438.7a2.12,2.12,0,0,1-2.12,2.12H171.72a2.12,2.12,0,0,1-2.12-2.12V318.52c0-1.55,1.31-3.52,2.12-3.52H382.14m0-2H171.72c-2.28,0-4.12,3.24-4.12,5.52V438.7a4.11,4.11,0,0,0,4.12,4.12H382.14a4.11,4.11,0,0,0,4.12-4.12V318.52c0-2.28-1.84-5.52-4.12-5.52Z"/></g></g></svg>