<svg xmlns="http://www.w3.org/2000/svg" viewBox="0 0 56.01 56"><defs><style>.cls-1{fill:#171717;}.cls-2{fill:#2f2f2f;}.cls-3,.cls-4{fill:none;stroke-width:2px;}.cls-3{stroke:#2f2f2f;stroke-miterlimit:10;}.cls-4{stroke:#ff1e56;stroke-linecap:round;stroke-linejoin:round;}.cls-5{fill:#ff1e56;}</style></defs><title>illustration</title><g id="Warstwa_2" data-name="Warstwa 2"><g id="Layer_4" data-name="Layer 4"><rect class="cls-1" x="1" y="41.02" width="21.85" height="8.98"/><path class="cls-2" d="M53.67,27c.48,0,.32.17.32.66V51a2.93,2.93,0,0,1-3.15,3H33c-1.82,0-3-.84-3-2.66V28a1.09,1.09,0,0,1,1-1H53.67m0-2H31a3.08,3.08,0,0,0-3,3V51.34C28,54.17,30,56,33,56H50.84A4.91,4.91,0,0,0,56,51V27.55A2.2,2.2,0,0,0,53.67,25Z"/><path class="cls-3" d="M7.77,28.69h8.74a2,2,0,0,1,2,2v3.63a.88.88,0,0,1-.88.88H6.69a.88.88,0,0,1-.88-.88V30.65A2,2,0,0,1,7.77,28.69Z"/><path class="cls-2" d="M32.27,12.48a22,22,0,0,1,5.82,9.15c.38,1.15.75,2.28,1.07,3.37H35.82a10.81,10.81,0,0,1-2-2.89,15.67,15.67,0,0,1-1.51-9.63M31,9a18.5,18.5,0,0,0,1,14,13.8,13.8,0,0,0,3,4h6.74A57,57,0,0,0,40,21,22.61,22.61,0,0,0,31,9Z"/><polygon class="cls-2" points="46.99 9 50.99 0 52.99 9 46.99 9"/><path class="cls-2" d="M26,7a10.3,10.3,0,0,0,.07,3.78C28.23,17.6,33,14,33,14s4.1-1.4,2-6c-1.44-3.15-3.54-2.58-5.08-4"/><path class="cls-2" d="M30.11,4.07A4.83,4.83,0,0,1,28.78.52a8.84,8.84,0,0,0-3.09,6.62"/><path class="cls-2" d="M50.63,11l-2.3,14h-2l2.33-14h2M53,9H47L44,27h6L53,9Z"/><path class="cls-4" d="M19.19,41V36.38H15.48v2.11a1.26,1.26,0,0,1,1.26-1.26,2.33,2.33,0,0,1,2.45,2.05"/><rect class="cls-5" x="18.17" y="36.78" width="0.42" height="0.42"/><path class="cls-3" d="M20.82,55H3c-1.11,0-2-.42-2-1.53V37.89A2.77,2.77,0,0,1,3.6,35H20a3.22,3.22,0,0,1,3,3V53.57C23,54.68,21.93,55,20.82,55Z"/><path class="cls-3" d="M45.31,44.87a3.31,3.31,0,1,1-6.62,0"/><path class="cls-3" d="M33.52,37.64a2.35,2.35,0,1,1,4.69,0"/><path class="cls-3" d="M45.31,37.31a2.35,2.35,0,1,1,4.7,0"/></g></g></svg>