<svg xmlns="http://www.w3.org/2000/svg" width="63.928"  viewBox="0 0 73.928 46.292">
  <defs>
    <style>
      .cls-1 {
        fill: #fff;
        fill-rule: evenodd;
      }
    </style>
  </defs>
  <path id="logo" class="cls-1" d="M74.394,23.2c0,13.023-10.766,23.092-23.571,23.092S27.251,36.223,27.251,23.2a22.84,22.84,0,0,1,1.6-8.437l-2.377-4.126L7.007,44.423a3.5,3.5,0,0,1-6.072-3.5l22.5-39.055a3.5,3.5,0,0,1,6.072,0l3.52,6.109A23.741,23.741,0,0,1,50.823,0,23.388,23.388,0,0,1,74.394,23.2Zm-7.008,0A16.281,16.281,0,0,1,51.07,39.283L36.819,14.55a16.641,16.641,0,0,1,14-7.542A16.381,16.381,0,0,1,67.386,23.2Z" transform="translate(-0.466)"/>
</svg>
