<svg xmlns="http://www.w3.org/2000/svg" viewBox="0 0 335.52 302"><defs><style>.cls-1,.cls-3,.cls-4{fill:none;stroke-linecap:round;stroke-width:2px;}.cls-1,.cls-4{stroke:#2f2f2f;}.cls-1,.cls-3{stroke-linejoin:round;}.cls-2{fill:#171717;}.cls-3{stroke:#ff1e56;}.cls-4{stroke-miterlimit:10;}.cls-5{fill:#ff1e56;}</style></defs><title>mail-small</title><g id="Warstwa_2" data-name="Warstwa 2"><g id="Layer_3" data-name="Layer 3"><rect class="cls-1" x="209.12" y="138.27" width="53.14" height="45.39"/><path class="cls-1" d="M209.12,183.66h-7.75a1.63,1.63,0,0,1-1.11-1.11v-10a1.63,1.63,0,0,1,1.11-1.11h7.75"/><path class="cls-1" d="M262.25,171.48H270a1.63,1.63,0,0,1,1.11,1.11v10a1.63,1.63,0,0,1-1.11,1.11h-7.75"/><path class="cls-1" d="M262.25,152.66v31H209.12v-31a19.27,19.27,0,0,0-18.82,18.82v126.2a3.67,3.67,0,0,0,3.32,3.32H205.8c1.6,0,2.21-1.72,2.21-3.32V278.86h54.24l0,19a3.73,3.73,0,0,0,3.36,3.1h12.17c1.6,0,2.39-1.5,2.39-3.1V171.09A18.4,18.4,0,0,0,262.25,152.66Zm3.33,114H205.8a2,2,0,0,1-2.21-1.91V231.26h64.21v33.21A2.24,2.24,0,0,1,265.58,266.68Z"/><path class="cls-1" d="M270,231.26H201.37V222.4c.1-.65,1.6-1.1,2.19-1.1h64.68c.59,0,1.66.45,1.76,1.1Z"/><circle class="cls-1" cx="255.06" cy="237.7" r="2.3"/><circle class="cls-1" cx="242.13" cy="237.7" r="2.3"/><circle class="cls-1" cx="229.19" cy="237.7" r="2.3"/><circle class="cls-1" cx="216.26" cy="237.7" r="2.3"/><circle class="cls-1" cx="255.06" cy="248.94" r="2.3"/><circle class="cls-1" cx="242.13" cy="248.94" r="2.3"/><circle class="cls-1" cx="229.19" cy="248.94" r="2.3"/><circle class="cls-1" cx="216.26" cy="248.94" r="2.3"/><circle class="cls-1" cx="255.06" cy="260.18" r="2.3"/><circle class="cls-1" cx="242.13" cy="260.18" r="2.3"/><circle class="cls-1" cx="229.19" cy="260.18" r="2.3"/><circle class="cls-1" cx="216.26" cy="260.18" r="2.3"/><path class="cls-1" d="M98.42,142.7h17.71a0,0,0,0,1,0,0V296.76a4.24,4.24,0,0,1-4.24,4.24h-9.23a4.24,4.24,0,0,1-4.24-4.24V142.7A0,0,0,0,1,98.42,142.7Z"/><path class="cls-1" d="M64.47,24.15h99.89a29.27,29.27,0,0,1,29.27,29.27v88.7a.58.58,0,0,1-.58.58H35.78a.58.58,0,0,1-.58-.58V53.41A29.27,29.27,0,0,1,64.47,24.15Z"/><path class="cls-1" d="M158.31,24.15h6.41A28.9,28.9,0,0,1,193.62,53V142.7a0,0,0,0,1,0,0H129.41a0,0,0,0,1,0,0V53a28.9,28.9,0,0,1,28.9-28.9Z"/><path class="cls-1" d="M138.27,131.43V60.31A23.49,23.49,0,0,1,161,36.72a23.23,23.23,0,0,1,23.8,23.15v71.56a1.25,1.25,0,0,1-1.26,1.26h-44A1.26,1.26,0,0,1,138.27,131.43Z"/><polyline class="cls-1" points="51.92 1 78.49 1 78.49 60.3"/><rect class="cls-2" x="149.83" y="58.56" width="23.29" height="8.61" rx="3.21"/><path class="cls-3" d="M73.08,95.1h27.43a2.34,2.34,0,0,1,2.34,2.34v16.4a2.3,2.3,0,0,1-2.3,2.3H73a2.3,2.3,0,0,1-2.3-2.3V97.43A2.34,2.34,0,0,1,73.08,95.1Z"/><path class="cls-3" d="M71.75,96.09l12.58,10.28a4,4,0,0,0,5.07,0L102,96.09"/><circle class="cls-2" cx="78.4" cy="60.3" r="8.94"/><line class="cls-4" x1="169.27" y1="301" x2="293.53" y2="301"/><line class="cls-4" x1="1" y1="301" x2="150.45" y2="301"/><line class="cls-4" x1="305.43" y1="301" x2="334.52" y2="301"/><path class="cls-5" d="M233,148.23H216.57c-.75,0-1.3.7-1.3,1.66h0c0,1,.55,1.66,1.3,1.66H233c.75,0,1.3-.7,1.3-1.66h0C234.31,148.93,233.76,148.23,233,148.23Z"/><path class="cls-2" d="M239,148.23h16c.75,0,1.3.7,1.3,1.66h0c0,1-.55,1.66-1.3,1.66H239c-.75,0-1.3-.7-1.3-1.66h0A1.51,1.51,0,0,1,239,148.23Z"/><path class="cls-2" d="M227.05,155h20.69a1.42,1.42,0,0,1,1.3,1.58h0a1.42,1.42,0,0,1-1.3,1.59H227.05a1.42,1.42,0,0,1-1.3-1.59h0A1.42,1.42,0,0,1,227.05,155Z"/><path class="cls-5" d="M253.77,161.52H240.68c-.75,0-1.3.7-1.3,1.66h0c0,1,.55,1.66,1.3,1.66h13.09c.75,0,1.3-.7,1.3-1.66h0C255.07,162.22,254.52,161.52,253.77,161.52Z"/><path class="cls-2" d="M216.57,169.27h35.07c.76,0,1.3.69,1.3,1.66h0c0,1-.54,1.66-1.3,1.66H216.57c-.75,0-1.3-.7-1.3-1.66h0A1.57,1.57,0,0,1,216.57,169.27Z"/></g></g></svg>