<svg xmlns="http://www.w3.org/2000/svg" viewBox="0 0 535.63 482"><defs><style>.cls-1,.cls-3,.cls-4{fill:none;stroke-linecap:round;stroke-width:2px;}.cls-1,.cls-4{stroke:#2f2f2f;}.cls-1,.cls-3{stroke-linejoin:round;}.cls-2{fill:#171717;}.cls-3{stroke:#ff1e56;}.cls-4{stroke-miterlimit:10;}.cls-5{fill:#ff1e56;}.cls-6{fill:#2f2f2f;}</style></defs><title>mail</title><g id="Warstwa_2" data-name="Warstwa 2"><g id="Layer_3" data-name="Layer 3"><rect class="cls-1" x="333.63" y="221" width="85" height="72"/><path class="cls-1" d="M333.8,293H321.4a2.62,2.62,0,0,1-1.77-1.77V275.77A2.62,2.62,0,0,1,321.4,274h12.4"/><path class="cls-1" d="M419.46,274h12.4a2.56,2.56,0,0,1,1.77,2.23v15.71a4.81,4.81,0,0,1-2.15,1.06H418.63"/><path class="cls-1" d="M419,243.66V293H334V243.66c-16.1,0-30.11,14-30.11,30.11V475.69a5.87,5.87,0,0,0,5.31,5.31h19.49c2.56,0,3.95-2.44,3.95-5V445h87.31v31a6.38,6.38,0,0,0,5.69,5H443.8c2.57,0,3.83-2.4,3.83-5V273.15A29.46,29.46,0,0,0,419,243.66Zm5.31,182.43H328.68c-1.93,0-3.54-1.13-3.54-3V369.41H427.86v53.14A3.59,3.59,0,0,1,424.32,426.09Z"/><path class="cls-1" d="M431.32,369.41H321.59V355.24c.17-1,2.56-1.77,3.5-1.77h103.5c.94,0,2.65.73,2.82,1.77Z"/><circle class="cls-1" cx="407.49" cy="379.72" r="3.67"/><circle class="cls-1" cx="386.8" cy="379.72" r="3.67"/><circle class="cls-1" cx="366.11" cy="379.72" r="3.67"/><circle class="cls-1" cx="345.41" cy="379.72" r="3.67"/><circle class="cls-1" cx="407.49" cy="397.7" r="3.67"/><circle class="cls-1" cx="386.8" cy="397.7" r="3.67"/><circle class="cls-1" cx="366.11" cy="397.7" r="3.67"/><circle class="cls-1" cx="345.41" cy="397.7" r="3.67"/><circle class="cls-1" cx="407.49" cy="415.69" r="3.67"/><circle class="cls-1" cx="386.8" cy="415.69" r="3.67"/><circle class="cls-1" cx="366.11" cy="415.69" r="3.67"/><circle class="cls-1" cx="345.41" cy="415.69" r="3.67"/><path class="cls-1" d="M156.87,227.72h28.34a0,0,0,0,1,0,0v249A4.24,4.24,0,0,1,181,481H161.11a4.24,4.24,0,0,1-4.24-4.24v-249A0,0,0,0,1,156.87,227.72Z"/><path class="cls-1" d="M106.16,38h152.6a50.43,50.43,0,0,1,50.43,50.43V227.13a.58.58,0,0,1-.58.58H56.3a.58.58,0,0,1-.58-.58V88.47A50.44,50.44,0,0,1,106.16,38Z"/><path class="cls-1" d="M257.83,38h0A51.37,51.37,0,0,1,309.19,89.4V227.72a0,0,0,0,1,0,0H206.46a0,0,0,0,1,0,0V89.4A51.37,51.37,0,0,1,257.83,38Z"/><path class="cls-1" d="M220.63,209.69V95.9c0-20.24,16-37.27,36.3-37.75A37.17,37.17,0,0,1,295,95.2V209.69a2,2,0,0,1-2,2H222.66A2,2,0,0,1,220.63,209.69Z"/><polyline class="cls-1" points="82.48 1 124.98 1 124.98 95.88"/><rect class="cls-2" x="238.63" y="93.1" width="38" height="13.78" rx="3.21"/><path class="cls-3" d="M114.92,151h46.69a2.34,2.34,0,0,1,2.34,2.34V182.7a2.3,2.3,0,0,1-2.3,2.3H114.89a2.3,2.3,0,0,1-2.3-2.3V153.34A2.34,2.34,0,0,1,114.92,151Z"/><path class="cls-3" d="M114.2,153.15l20.14,16.45a6.42,6.42,0,0,0,8.1,0l20.14-16.45"/><circle class="cls-2" cx="124.85" cy="95.88" r="14.31"/><line class="cls-4" x1="270.23" y1="481" x2="469.05" y2="481"/><line class="cls-4" x1="1" y1="481" x2="240.11" y2="481"/><line class="cls-4" x1="488.08" y1="481" x2="534.63" y2="481"/><path class="cls-5" d="M372.22,237H345.91a2.21,2.21,0,0,0-2.08,2.44h0a2.21,2.21,0,0,0,2.08,2.45h26.31a2.21,2.21,0,0,0,2.08-2.45h0A2.21,2.21,0,0,0,372.22,237Z"/><path class="cls-6" d="M381.86,237h25.65a2.21,2.21,0,0,1,2.08,2.44h0a2.21,2.21,0,0,1-2.08,2.45H381.86a2.21,2.21,0,0,1-2.08-2.45h0A2.28,2.28,0,0,1,381.86,237Z"/><path class="cls-6" d="M362.68,248h33.1a2.24,2.24,0,0,1,2.08,2.5h0a2.24,2.24,0,0,1-2.08,2.5h-33.1a2.24,2.24,0,0,1-2.08-2.5h0A2.24,2.24,0,0,1,362.68,248Z"/><path class="cls-5" d="M405.43,259H384.49a2.24,2.24,0,0,0-2.08,2.5h0a2.24,2.24,0,0,0,2.08,2.5h20.94a2.24,2.24,0,0,0,2.08-2.5h0A2.24,2.24,0,0,0,405.43,259Z"/><path class="cls-6" d="M345.91,270H402a2.24,2.24,0,0,1,2.08,2.5h0A2.24,2.24,0,0,1,402,275H345.91a2.24,2.24,0,0,1-2.08-2.5h0A2.4,2.4,0,0,1,345.91,270Z"/></g></g></svg>