<svg xmlns="http://www.w3.org/2000/svg" viewBox="0 0 56.13 52"><defs><style>.cls-1{fill:none;}.cls-1,.cls-2,.cls-3{stroke:#2f2f2f;stroke-miterlimit:10;stroke-width:2px;}.cls-2{fill:#171717;}</style></defs><title>tools</title><g id="Warstwa_2" data-name="Warstwa 2"><g id="Warstwa_8" data-name="Warstwa 8"><path class="cls-1" d="M39.89,19c15,0,15-7,15-7,1-2-1.43-2.76-2-2-3,4-7,4-9,2s-3-6,2-9c.84-.51-.07-2.11-1.07-2-3.4.4-7.93,1-8.93,15l-19,16c-15-1-15,9-15,9,0,.92,1.43,1.76,2,1,3-4,6-4,8-2s3,5-2,9c-.76.61.07,2.11,1.07,2,.55-.07,9.93-2,9.93-15Z"/><path class="cls-2" d="M51.68,50.06l2.71-2.56a2,2,0,0,0,.07-3L40.08,31a2.31,2.31,0,0,0-3.13.08l-2.7,2.56a2,2,0,0,0-.07,2.95L48.56,50.14A2.3,2.3,0,0,0,51.68,50.06Z"/><path class="cls-3" d="M35.47,32.65l.11-.11a2,2,0,0,0,0-3L21.9,16.58a2.37,2.37,0,0,0-3.2,0l-.12.11a2.07,2.07,0,0,0,0,3L32.27,32.65A2.35,2.35,0,0,0,35.47,32.65Z"/><path class="cls-1" d="M20.73,14.84S19.68,6.94,27,4,10.29-3.91,7.15,13.85L1.93,16a1.4,1.4,0,0,0-.48,2.35l3.62,3.8a1.57,1.57,0,0,0,2.45-.38c1.25-2.35,3.63-6.65,10.08-3.94Z"/></g></g></svg>