<svg xmlns="http://www.w3.org/2000/svg" viewBox="0 0 302.96 292.22"><defs><style>.cls-1{fill:#171717;}.cls-10,.cls-11,.cls-12,.cls-2,.cls-3,.cls-5,.cls-7,.cls-8,.cls-9{fill:none;}.cls-10,.cls-11,.cls-12,.cls-13,.cls-2,.cls-3,.cls-5,.cls-7,.cls-8,.cls-9{stroke:#2f2f2f;}.cls-12,.cls-2,.cls-3{stroke-linejoin:round;}.cls-2{stroke-width:1.5px;}.cls-11,.cls-12,.cls-13,.cls-3,.cls-5,.cls-7,.cls-8{stroke-width:2px;}.cls-4{fill:#2f2f2f;}.cls-10,.cls-13,.cls-5,.cls-8{stroke-miterlimit:10;}.cls-13,.cls-6{fill:#ff1e56;}.cls-10,.cls-11,.cls-12,.cls-13,.cls-8{stroke-linecap:round;}</style></defs><title>about-small</title><g id="Warstwa_2" data-name="Warstwa 2"><g id="Layer_1" data-name="Layer 1"><path class="cls-1" d="M133,61.82c1.18.5-1.23,8-4.94,8.42a3.43,3.43,0,0,1-.82-2.45s.28-6,3.56-6.39C132.86,61.37,131.84,61.32,133,61.82Z"/><path class="cls-2" d="M154.49,38.65c-3.73-6-8.13-11.86-12.34-17.55,0,0,2.69,6-1.15,15.54v0l0,.13.19.07c4.41,10,1.47,15.37.68,16.56l0,0c.28,4.43-3,9.88-3.5,10.77,0,0,0,.06,0,0,8-5.9,8.86-12.49,8.86-12.49.19,5.13-5.56,13.31-5.56,13.31,9.74-7.08,11-11.65,11.07-13.35.47,6.39-2,8.83-2,8.83C156,56,157,55,155,48a74.35,74.35,0,0,1,3,7A20.08,20.08,0,0,0,154.49,38.65Z"/><path class="cls-3" d="M85.1,69.35a12.45,12.45,0,0,1-2.61,5.1,15.37,15.37,0,0,0,3.5.43s-1.73,12.52,3.2,17.88c6.91,7.52,14.68,15.95,21.79,20.4s10.53,1.64,11.56-1.64a24.61,24.61,0,0,1,2.4-5.39c1.07-3.28,5.92-3.61,5.92-3.61,2-3.48,1.13-5.87,1.13-5.87a4.46,4.46,0,0,0,3.4-2.23,11.2,11.2,0,0,1-.89-4.51,38.24,38.24,0,0,0,10.11-2.85s-6.31-10.37-7.35-17.37c0,0,0-11,4.45-16,0,0,4.54-5.45-.49-16.81l-.26-.09C139,41.47,135.54,47,129.35,53.16a7.88,7.88,0,0,0,1.21-4.75S128.35,55.65,102,52c0,0,7.57-7.76,7.94-14.17,0,0-3.73,8.37-14.43,13.5,0,0-3.36,1.52-3.73,12.28"/><path class="cls-4" d="M134.23,47.14s4.39,1.53,5.49,3.41c-.17,1.38-2.63,2.94-2.63,2.94a8.39,8.39,0,0,1-2.4-2.7,4.84,4.84,0,0,0-2.82-.25l-3.2-.51Z"/><path class="cls-5" d="M191.23,207.36s-2.36,1.61-.1,2.44a21.27,21.27,0,0,1,13.22-5.53c5-.28,6.81-1.45,7.39-2.57C206.87,201.35,198.16,200.79,191.23,207.36Z"/><path class="cls-6" d="M293.7,156l-30.52,83c-.32.9-.4,1.89.5,2.2L267,242.9c.9.31.91-1.28,1.24-2.17l31.17-82.29a1.69,1.69,0,0,0-1-2.18l-2.42-1.35A1.77,1.77,0,0,0,293.7,156Z"/><path class="cls-3" d="M198.61,223.88a20.9,20.9,0,0,1,6.76,3.33,15.17,15.17,0,0,1,4.85,2.23c2.71,1.69,3,.47,2.82-.65C209.77,226.41,204.5,222.71,198.61,223.88Z"/><path class="cls-7" d="M129.28,94.7a11.41,11.41,0,0,0-6.57-2.34"/><path class="cls-7" d="M133.36,86.36s-1.85-1,.61-.74a12,12,0,0,1,2.69.67"/><path class="cls-7" d="M78.72,54.23c-1.69-4.4,1.42-9,3.88-8.79,2.3.44,2.36,3.43,2.36,3.43"/><path class="cls-5" d="M75.61,153.81C67.79,121.94,43.25,131,43.25,131S29.79,136,26.14,149.91c-3.14,12,7,50.21,9.33,58.71a2.18,2.18,0,0,0,2.23,1.61,120,120,0,0,0,21.43-3.13c9.44-2.36,21.56-7.5,26-9.44a2.17,2.17,0,0,0,1.23-2.55Z"/><path class="cls-8" d="M232,291.21H99s-2.53-23.86-3.18-42.84c-36.08-8.22-46.57-35.65-47.77-39.14a107.37,107.37,0,0,0,11.08-2.12c8.23-2,18.48-6.22,23.9-8.54l.22.45s1.49,8.58,13,16.09c.12-1.75.26-3.51.41-5.27,12.05-29.7-1.39-70.43-1.39-70.43-.61-2-2.14-7.61-2.14-7.61a45,45,0,0,0,2.61-8.1,1.53,1.53,0,0,0-.46-1.47C75.11,103.39,57.59,95.57,54.11,94.13a.59.59,0,0,0-.79.35c-.47,1.38-2.21,5-8.36,9.77,0,0-16.45,11.48-22.1,21.34S10,140.11,5.53,205.31c0,0-.63,8.93-1.08,14.78C3.93,226.74,1,291.2,1,291.2"/><path class="cls-1" d="M200.69,244.38H171.36c-1.15,0-2.33-.07-3.47,0-1.81.12-1.44,2.21-1.44,3.5,0,.63-.13,1.26.47,1.66a2.52,2.52,0,0,0,1.39.36c2,0,3.93,0,5.89,0h84.08c.61,0,1.5-.17,1.78-.8a4.19,4.19,0,0,0,.07-1.54v-2c0-.78-.31-1.2-1.16-1.2"/><path class="cls-5" d="M149.71,226.16s14,1.88,31.92-4.38a75.26,75.26,0,0,0,7.65-4.63c18.95-2.2,25.35-8.83,18.71-7.94-24.21,3.22-16.76-1.85-16.76-1.85,11.78-11.16,28.68-1.74,23.2-7.77-4-4.38-22.89-3.7-32.78,4.55-12.1,10.1-10.35,9.71-51.07,10.32-15.82.24-26.07-3.8-32.55-8.25-.4,1.22-.84,2.43-1.32,3.62-.15,1.76-.29,3.52-.41,5.27C105.77,221.25,122,226.7,149.71,226.16Z"/><path class="cls-5" d="M89.19,92.76C84.26,87.4,86,74.88,86,74.88a15.28,15.28,0,0,1-3.49-.43c-2,2.38-5.38,4.73-11.13,4.91-3.31.11-3.89-.23-3.89-.23C66.77,82.74,56.36,95,56.36,95l.41.28C62.5,98,75.16,104.7,89.92,117.38c4.49-9.47,7.53-11.23,7.53-11.23l7.25,2.28A198.13,198.13,0,0,1,89.19,92.76Z"/><path class="cls-9" d="M122.78,61.8a26.23,26.23,0,0,0,5.9,8.88"/><path class="cls-10" d="M128.57,70.53s-4.34-4.53-5.79-8.73h0s9.34-2.07,10.73.87"/><path class="cls-11" d="M122.09,61.64s8.72-1.73,11.78.93a3.07,3.07,0,0,1-.52,1.38"/><path d="M129.33,66.6c.42.08.94-.43,1.16-1.16s.06-1.38-.36-1.46-.95.42-1.17,1.15S128.9,66.51,129.33,66.6Z"/><path class="cls-1" d="M300.44,154.05l-.88-.37c-.95-.35-3.24-.94-3.59,0l-34,92.56H163.2c-1,0-1.73,1.43-1.73,2.44v.75c0,1,.82,1.22,1.83,1.22H263.73a2.81,2.81,0,0,0,2.46-1.85l35.33-92.42A1.83,1.83,0,0,0,300.44,154.05Z"/><path class="cls-12" d="M133,14c11.61,5.8,12.42,7.29,12.42,7.29S136,1.37,105.15,1s-41.7,12.34-41.7,12.34S57,19.12,59,35.37,64.49,61,64.49,61s4,12,3.7,14.57a12.39,12.39,0,0,1-.71,3.53s.58.34,3.89.23c11.88-.38,13.73-10,13.73-10-6.9,4-11.24-13.54-11.26-17.87,0,0-.3-11.21,8.3-12,7.81-.7,6.74,11.09,6.74,11.09-.36,11.1,2.88,13.05,2.88,13.05.37-10.76,3.73-12.28,3.73-12.28,10.7-5.13,14.43-13.5,14.43-13.5C109.55,44.26,102,52,102,52c26.37,3.63,28.58-3.61,28.58-3.61a7.88,7.88,0,0,1-1.21,4.75c18.85-18.66,12.8-32.06,12.8-32.06S137.24,16.2,133,14Z"/><path class="cls-5" d="M216.45,229.48c-.67-4.91-11.36-17-33.12-8.32-18.68,7-33.62,5-33.62,5C88.14,227.37,83.25,199,83.25,199l-.22-.45c-5.42,2.32-15.67,6.49-23.9,8.54a107.37,107.37,0,0,1-11.08,2.12c1.44,4.2,16.32,43,73,41.41,0,0,28.37-.74,52.33-11.73,0,0,23.81-9.43,26.51-.58,4.17,6.6,5.44-5.51-3.47-7.84,0,0,4.62-3.12,11.52,5.67,4.05,5.16,5-8-9.33-12.27C208.8,221.86,217.13,234.39,216.45,229.48Z"/><line class="cls-13" x1="240.68" y1="291.22" x2="296" y2="291.2"/><path class="cls-5" d="M299.49,255.2H150.55a2.5,2.5,0,0,1,0-5H299.49a2.5,2.5,0,0,1,0,5Z"/><path class="cls-5" d="M185.83,260.2H169.9a2.54,2.54,0,0,1,.64-5h15.92a2.52,2.52,0,0,1,2.54,2.5C189,259.08,187.86,260.2,185.83,260.2Z"/><path class="cls-8" d="M249.7,98.2H186c-6.17,0-11.1,4.19-11.1,10.36v35a12.11,12.11,0,0,0,11.76,11.67H226c-.41,17.48,14.38,19,20.5,19a.64.64,0,0,0,.32-1.19c-10.41-6.28-8.89-17.85-8.89-17.85H250c6.17,0,10.94-5.49,10.94-11.67v-35C260.94,102.39,255.87,98.2,249.7,98.2Z"/><polyline class="cls-8" points="207 114.2 197 125.2 207 135.2"/><polyline class="cls-8" points="229 114.2 239 125.2 229 135.2"/><line class="cls-8" x1="211" y1="138.2" x2="225" y2="112.2"/><rect class="cls-5" x="175" y="260.2" width="5" height="31"/><path class="cls-5" d="M277.83,260.2H261.9a2.54,2.54,0,0,1,.64-5h15.92a2.52,2.52,0,0,1,2.54,2.5C281,259.08,279.86,260.2,277.83,260.2Z"/><rect class="cls-5" x="268" y="260.2" width="5" height="31"/></g></g></svg>