<svg xmlns="http://www.w3.org/2000/svg" viewBox="0 0 57 54"><defs><style>.cls-1{fill:none;stroke:#2f2f2f;stroke-linecap:round;stroke-linejoin:round;stroke-width:2px;}.cls-2{fill:#2f2f2f;}</style></defs><title>des</title><g id="Warstwa_2" data-name="Warstwa 2"><g id="Layer_5" data-name="Layer 5"><line class="cls-1" x1="28.87" y1="34.15" x2="24.98" y2="33.29"/><line class="cls-1" x1="35.18" y1="5.31" x2="31.29" y2="4.46"/><line class="cls-1" x1="33.6" y1="12.52" x2="29.71" y2="11.67"/><line class="cls-1" x1="32.02" y1="19.73" x2="28.14" y2="18.88"/><line class="cls-1" x1="30.44" y1="26.94" x2="26.56" y2="26.09"/><line class="cls-1" x1="27.29" y1="41.35" x2="23.4" y2="40.5"/><line class="cls-1" x1="25.71" y1="48.56" x2="21.82" y2="47.71"/><line class="cls-1" x1="33.33" y1="8.76" x2="30.49" y2="8.14"/><line class="cls-1" x1="31.76" y1="15.94" x2="28.92" y2="15.32"/><line class="cls-1" x1="27.04" y1="37.48" x2="24.2" y2="36.85"/><line class="cls-1" x1="30.19" y1="23.12" x2="27.34" y2="22.5"/><line class="cls-1" x1="28.61" y1="30.3" x2="25.77" y2="29.68"/><line class="cls-1" x1="25.47" y1="44.65" x2="22.63" y2="44.03"/><line class="cls-1" x1="10" y1="21" x2="10" y2="28"/><polygon class="cls-1" points="12 21 8 21.01 8 13.06 12 13 12 21"/><polygon class="cls-1" points="1 53 10.16 30.57 19 53 12.32 25.38 8 25.38 1 53"/><circle class="cls-2" cx="9.92" cy="28.28" r="4.92"/><polygon class="cls-1" points="29 53 21.11 50.97 32 1 40 3 29 53"/><line class="cls-1" x1="39.71" y1="31.11" x2="37.28" y2="31.11"/><line class="cls-1" x1="39.71" y1="44.58" x2="37.28" y2="44.58"/><line class="cls-1" x1="39.71" y1="22.13" x2="37.28" y2="22.13"/><line class="cls-1" x1="39.71" y1="26.62" x2="37.28" y2="26.62"/><line class="cls-1" x1="39.71" y1="35.6" x2="37.28" y2="35.6"/><line class="cls-1" x1="39.71" y1="40.09" x2="37.28" y2="40.09"/><line class="cls-1" x1="39.71" y1="49.07" x2="37.28" y2="49.07"/><path class="cls-1" d="M43.1,20.9,43,18H37V53h6l.1-3C50.48,49.23,56,42.58,56,35A14,14,0,0,0,43.1,20.9Zm0,23.66V26.3C47.52,27,51,30.38,51,35A9.77,9.77,0,0,1,43.1,44.56Z"/></g></g></svg>