<svg xmlns="http://www.w3.org/2000/svg" viewBox="0 0 303.28 273"><defs><style>.cls-1,.cls-3,.cls-4{fill:none;stroke-linecap:round;stroke-width:2px;}.cls-1,.cls-4{stroke:#2f2f2f;}.cls-1,.cls-3{stroke-linejoin:round;}.cls-2{fill:#171717;}.cls-3{stroke:#ff1e56;}.cls-4{stroke-miterlimit:10;}.cls-5{fill:#ff1e56;}.cls-6{fill:#2f2f2f;}</style></defs><title>mail-small</title><g id="Warstwa_2" data-name="Warstwa 2"><g id="Layer_3" data-name="Layer 3"><rect class="cls-1" x="189" y="125" width="48" height="41"/><path class="cls-1" d="M189,166h-7a1.48,1.48,0,0,1-1-1v-9a1.48,1.48,0,0,1,1-1h7"/><path class="cls-1" d="M237,155h7a1.48,1.48,0,0,1,1,1v9a1.48,1.48,0,0,1-1,1h-7"/><path class="cls-1" d="M237,138v28H189V138a17.41,17.41,0,0,0-17,17V269a3.31,3.31,0,0,0,3,3h11c1.45,0,2-1.55,2-3V252h49l0,17.2a3.38,3.38,0,0,0,3,2.8h11c1.45,0,2.16-1.36,2.16-2.8V154.65A16.64,16.64,0,0,0,237,138Zm3,103H186a1.8,1.8,0,0,1-2-1.72V209h58v30A2,2,0,0,1,240,241Z"/><path class="cls-1" d="M244,209H182v-8c.09-.59,1.44-1,2-1h58.43c.53,0,1.5.41,1.59,1Z"/><circle class="cls-1" cx="230.5" cy="214.82" r="2.07"/><circle class="cls-1" cx="218.82" cy="214.82" r="2.07"/><circle class="cls-1" cx="207.13" cy="214.82" r="2.07"/><circle class="cls-1" cx="195.45" cy="214.82" r="2.07"/><circle class="cls-1" cx="230.5" cy="224.97" r="2.07"/><circle class="cls-1" cx="218.82" cy="224.97" r="2.07"/><circle class="cls-1" cx="207.13" cy="224.97" r="2.07"/><circle class="cls-1" cx="195.45" cy="224.97" r="2.07"/><circle class="cls-1" cx="230.5" cy="235.13" r="2.07"/><circle class="cls-1" cx="218.82" cy="235.13" r="2.07"/><circle class="cls-1" cx="207.13" cy="235.13" r="2.07"/><circle class="cls-1" cx="195.45" cy="235.13" r="2.07"/><path class="cls-1" d="M89,129h16a0,0,0,0,1,0,0V267.76a4.24,4.24,0,0,1-4.24,4.24H93.24A4.24,4.24,0,0,1,89,267.76V129a0,0,0,0,1,0,0Z"/><path class="cls-1" d="M61.16,21.91h84.57A29.27,29.27,0,0,1,175,51.17v77.24a.58.58,0,0,1-.58.58H32.48a.58.58,0,0,1-.58-.58V51.17A29.27,29.27,0,0,1,61.16,21.91Z"/><path class="cls-1" d="M145.9,21.91h.2A28.9,28.9,0,0,1,175,50.81V129a0,0,0,0,1,0,0H117a0,0,0,0,1,0,0V50.81A28.9,28.9,0,0,1,145.9,21.91Z"/><path class="cls-1" d="M125,118.82V54.58a21.21,21.21,0,0,1,20.49-21.31A21,21,0,0,1,167,54.18v64.64a1.14,1.14,0,0,1-1.14,1.14H126.14A1.14,1.14,0,0,1,125,118.82Z"/><polyline class="cls-1" points="47 1 71 1 71 54.57"/><rect class="cls-2" x="135.45" y="53" width="21.04" height="7.78" rx="3.21"/><path class="cls-3" d="M66.34,86H90.66A2.34,2.34,0,0,1,93,88.34V102.7a2.3,2.3,0,0,1-2.3,2.3H66.3a2.3,2.3,0,0,1-2.3-2.3V88.34A2.34,2.34,0,0,1,66.34,86Z"/><path class="cls-3" d="M64.91,86.9l11.37,9.29a3.63,3.63,0,0,0,4.57,0L92.22,86.9"/><circle class="cls-2" cx="70.92" cy="54.57" r="8.08"/><line class="cls-4" x1="153" y1="272" x2="265.25" y2="272"/><line class="cls-4" x1="1" y1="272" x2="136" y2="272"/><line class="cls-4" x1="276" y1="272" x2="302.28" y2="272"/><path class="cls-5" d="M210.58,134H195.73c-.68,0-1.17.63-1.17,1.5h0c0,.87.49,1.5,1.17,1.5h14.85c.68,0,1.18-.63,1.18-1.5h0C211.76,134.63,211.26,134,210.58,134Z"/><path class="cls-6" d="M216,134h14.48c.68,0,1.17.63,1.17,1.5h0c0,.87-.49,1.5-1.17,1.5H216c-.68,0-1.18-.63-1.18-1.5h0A1.36,1.36,0,0,1,216,134Z"/><path class="cls-6" d="M205.2,140.14h18.69a1.28,1.28,0,0,1,1.17,1.43h0a1.27,1.27,0,0,1-1.17,1.43H205.2a1.28,1.28,0,0,1-1.18-1.43h0A1.29,1.29,0,0,1,205.2,140.14Z"/><path class="cls-5" d="M229.33,146H217.51c-.68,0-1.17.63-1.17,1.5h0c0,.87.49,1.5,1.17,1.5h11.82c.68,0,1.18-.63,1.18-1.5h0C230.51,146.63,230,146,229.33,146Z"/><path class="cls-6" d="M195.73,153h31.68c.68,0,1.18.63,1.18,1.5h0c0,.87-.5,1.5-1.18,1.5H195.73c-.68,0-1.17-.63-1.17-1.5h0A1.41,1.41,0,0,1,195.73,153Z"/></g></g></svg>