<svg xmlns="http://www.w3.org/2000/svg" viewBox="0 0 58 58"><defs><style>.cls-1{fill:#171717;}.cls-1,.cls-2{stroke:#2f2f2f;stroke-miterlimit:10;stroke-width:2px;}.cls-2{fill:none;}</style></defs><title>tools</title><g id="Warstwa_8" data-name="Warstwa 8"><path class="cls-1" d="M51.36,52.3l2-1.85A1.78,1.78,0,0,0,53,47.9L40.66,35.84a2.06,2.06,0,0,0-2.7-.36l-2,1.86a1.77,1.77,0,0,0,.34,2.54L48.67,51.94A2,2,0,0,0,51.36,52.3Z"/><path class="cls-2" d="M37.13,36.42l.1-.09A1.92,1.92,0,0,0,37,33.55l-13.62-13a2.2,2.2,0,0,0-2.93-.26l-.1.09a1.9,1.9,0,0,0,.25,2.77l13.63,13A2.19,2.19,0,0,0,37.13,36.42Z"/><path class="cls-2" d="M22.39,18.91C20,14.61,21,9.61,28.66,8.05S12,.16,8.82,17.92L3.6,20a1.41,1.41,0,0,0-.48,2.36l3.61,3.8a1.58,1.58,0,0,0,2.46-.38c1.25-2.35,1.84-8.2,10.07-3.94C19.26,21.87,22.91,19.85,22.39,18.91Z"/><path class="cls-2" d="M34,30.61l7-7a7.74,7.74,0,0,0,8.65-1.91c2.13-2.13,3.88-7.19.29-7.78-2.12,2.13,0,2.64-1,3.59-2.34,2.34-4.58,2.41-6,1s-1.34-3.66,1-6c1-.95,1.46.71,3.58-1.41-.58-2.59-5.64-1.43-7.77.7C37,14.54,37,17.61,38,20.61l-7,7"/><path class="cls-2" d="M28,30.61l-7,7a7.74,7.74,0,0,0-8.64,1.91c-2.13,2.14-3.88,7.2-.29,7.78,2.12-2.12.05-2.64,1-3.58,2.34-2.35,4.58-2.42,6-1s1.34,3.65-1,6c-1,.94-1.46-.71-3.59,1.41.59,2.59,5.65,1.43,7.78-.71C25,46.69,25,43.61,24,40.61l7-7"/></g></svg>