<svg xmlns="http://www.w3.org/2000/svg" viewBox="0 0 491.49 471.49"><defs><style>.cls-1{fill:#0d0d0d;}.cls-10,.cls-11,.cls-2,.cls-4,.cls-6,.cls-7,.cls-8,.cls-9{fill:none;}.cls-10,.cls-11,.cls-12,.cls-2,.cls-4,.cls-6,.cls-7,.cls-8,.cls-9{stroke:#171717;}.cls-11,.cls-2{stroke-linejoin:round;}.cls-10,.cls-11,.cls-12,.cls-2,.cls-4,.cls-6,.cls-7{stroke-width:2px;}.cls-3{fill:#171717;}.cls-12,.cls-4,.cls-7,.cls-9{stroke-miterlimit:10;}.cls-12,.cls-5{fill:#ff1e56;}.cls-10,.cls-11,.cls-12,.cls-7,.cls-9{stroke-linecap:round;}</style></defs><title>about</title><g id="Layer_2" data-name="Layer 2"><g id="Layer_1-2" data-name="Layer 1"><path class="cls-1" d="M217,99.46c1.92.82-2,12.9-8,13.64-1.68-2.38-1.34-4-1.34-4s.45-9.69,5.77-10.35C216.74,98.74,215.09,98.65,217,99.46Z"/><path class="cls-2" d="M251.75,62c-6-9.77-13.15-19.2-20-28.41,0,0,4.36,9.7-1.85,25.16v0L230,59l.31.11c7.14,16.12,2.38,24.88,1.09,26.8l0,.07c.45,7.16-4.78,16-5.68,17.44,0,0,0,.09.07.06,13-9.56,14.35-20.23,14.35-20.23.3,8.31-9,21.56-9,21.56C246.83,93.29,248.86,85.9,249,83.14c.76,10.35-3.17,14.3-3.17,14.3,14.06-5.93,8.05-22.37,8.05-22.37,2.38,4.55,3.24,12.68,3.24,12.68C263,74.2,251.75,62,251.75,62Z"/><path class="cls-2" d="M139.42,111.65a20.48,20.48,0,0,1-4.23,8.27,24.79,24.79,0,0,0,5.66.68s-2.8,20.28,5.18,29c11.2,12.17,23.77,25.82,35.28,33s17,2.65,18.72-2.66a40.76,40.76,0,0,1,3.88-8.73c1.74-5.3,9.59-5.83,9.59-5.83,3.26-5.64,1.82-9.51,1.82-9.51a7.22,7.22,0,0,0,5.51-3.61,18.2,18.2,0,0,1-1.45-7.3c10.55-1.7,16.38-4.62,16.38-4.62s-10.22-16.78-11.9-28.11c0,0,0-17.76,7.21-25.95,0,0,7.35-8.81-.8-27.2l-.42-.16c-3.11,7.62-8.78,16.63-18.8,26.55,0,0,2-2.59,2-7.69,0,0-3.58,11.71-46.27,5.83,0,0,12.26-12.55,12.85-22.94,0,0-6,13.55-23.36,21.86,0,0-5.44,2.47-6,19.88"/><path class="cls-3" d="M219,75.7s7.11,2.48,8.89,5.52c-.28,2.24-4.27,4.76-4.27,4.76a13.62,13.62,0,0,1-3.88-4.37c-2.14-1-4-1.75-4-1.75l-6.57-2.43Z"/><path class="cls-4" d="M311.24,335.09s-3.84,2.61-.17,4a34.45,34.45,0,0,1,21.4-9c8-.44,11-2.34,12-4.16C336.55,325.36,322.46,324.45,311.24,335.09Z"/><path class="cls-5" d="M477.13,251.89,427.71,386.27c-.52,1.44-.64,3,.82,3.54l5.32,2.81c1.46.5,1.48-2.07,2-3.52l50.47-133.21a2.73,2.73,0,0,0-1.68-3.53l-3.93-2.18A2.83,2.83,0,0,0,477.13,251.89Z"/><path class="cls-2" d="M323.17,361.84a33.5,33.5,0,0,1,10.95,5.38,24.59,24.59,0,0,1,7.86,3.61c4.39,2.73,4.83.76,4.56-1.06C341.25,365.93,332.72,359.94,323.17,361.84Z"/><path class="cls-6" d="M210.94,152.69a18.51,18.51,0,0,0-10.64-3.78"/><path class="cls-6" d="M217.55,139.19s-3-1.61,1-1.19a20.57,20.57,0,0,1,4.36,1.07"/><path class="cls-6" d="M129.09,87.17c-2.75-7.12,2.29-14.65,6.28-14.23,3.72.72,3.81,5.56,3.81,5.56"/><path class="cls-4" d="M124.05,248.39c-12.66-51.59-52.39-37-52.39-37S49.87,219.61,44,242.08c-5.09,19.35,11.33,81.28,15.11,95a3.52,3.52,0,0,0,3.6,2.6,194.93,194.93,0,0,0,34.7-5.06c15.28-3.82,34.9-12.14,42-15.28a3.54,3.54,0,0,0,2-4.14Z"/><path class="cls-7" d="M376.66,470.48l-213.59-.12s-5.26-38.16-6.3-68.9c-58.42-13.31-75.4-57.71-77.35-63.37a174.47,174.47,0,0,0,18-3.42c13.32-3.33,29.92-10.08,38.69-13.83l.37.73s2.39,13.88,21.12,26.05q.28-4.26.66-8.53c19.51-48.1-2.25-114-2.25-114-1-3.32-3.47-12.33-3.47-12.33a71.53,71.53,0,0,0,4.22-13.11,2.49,2.49,0,0,0-.73-2.38c-32.74-30.49-61.11-43.15-66.74-45.48a1,1,0,0,0-1.28.57c-.76,2.23-3.57,8.08-13.53,15.82,0,0-26.63,18.57-35.78,34.54S17.84,226.2,10.59,331.77c0,0-1,14.45-1.75,23.92C8,366.46,1,470.36,1,470.36"/><path class="cls-1" d="M326.55,395h-47.5c-1.85,0-3.75-.12-5.61,0-2.92.19-2.33,3.57-2.33,5.67,0,1-.2,2,.76,2.68a4.14,4.14,0,0,0,2.25.58c3.18.08,6.36,0,9.54,0H419.79c1,0,2.42-.26,2.87-1.29a6.92,6.92,0,0,0,.11-2.49c0-1.07,0-2.14,0-3.21,0-1.27-.49-1.94-1.86-1.94"/><path class="cls-4" d="M244,365.51s22.74,3.06,51.67-7.09a120.09,120.09,0,0,0,12.39-7.49c30.68-3.56,41.05-14.29,30.29-12.85-39.2,5.22-27.12-3-27.12-3,19.06-18.07,46.42-2.82,37.54-12.58-6.45-7.1-37-6-53.06,7.36-19.59,16.35-16.75,15.72-82.67,16.71-25.61.39-42.22-6.16-52.7-13.36q-1,3-2.14,5.87-.37,4.28-.66,8.53C172.88,357.58,199.14,366.4,244,365.51Z"/><path class="cls-4" d="M146,149.55c-8-8.67-5.18-29-5.18-29a24.68,24.68,0,0,1-5.65-.69c-3.2,3.85-8.7,7.66-18,8-5.36.17-6.3-.39-6.3-.39-1.16,5.85-18,25.75-18,25.75l.67.45c9.28,4.35,29.76,15.2,53.67,35.73,7.26-15.33,12.18-18.18,12.18-18.18l11.75,3.69C162.66,167.62,154,158.22,146,149.55Z"/><path class="cls-8" d="M200.41,99.44A42.53,42.53,0,0,0,210,113.81"/><path class="cls-9" d="M209.78,113.57s-7-7.34-9.37-14.13h0s15.13-3.36,17.37,1.4"/><path class="cls-10" d="M199.29,99.18s14.12-2.8,19.07,1.5a4.82,4.82,0,0,1-.84,2.23"/><path d="M211,107.2c.68.14,1.53-.7,1.89-1.87s.1-2.23-.59-2.38-1.53.7-1.89,1.87S210.33,107.05,211,107.2Z"/><path class="cls-3" d="M488,248.77l-1.42-.59c-1.54-.57-5.24-1.52-5.81,0L425.79,398H265.85c-1.64,0-2.8,2.33-2.8,4v1.22c0,1.63,1.33,2,3,2H428.6a4.55,4.55,0,0,0,4-3l57.19-149.61A3,3,0,0,0,488,248.77Z"/><path class="cls-11" d="M215.42,17.33C234.23,26.73,237,33.85,237,33.85S221.76,1.61,171.87,1s-67.5,20-67.5,20S93.88,30.34,97.1,56.64s9,41.55,9,41.55,6.43,19.38,6,23.58a20.58,20.58,0,0,1-1.15,5.71s.94.56,6.3.39c19.23-.62,22.23-16.22,22.23-16.22-11.17,6.49-18.21-21.91-18.24-28.93,0,0-.48-18.14,13.45-19.4,12.64-1.14,10.9,17.95,10.9,17.95-.58,18,4.66,21.12,4.66,21.12.6-17.41,6-19.88,6-19.88,17.32-8.31,23.36-21.86,23.36-21.86C179,71,166.74,83.59,166.74,83.59,209.43,89.47,213,77.76,213,77.76c.07,5.1-2,7.69-2,7.69,30.51-30.21,20.72-51.91,20.72-51.91S222.35,20.89,215.42,17.33Z"/><path class="cls-4" d="M352.07,370.9c-1.1-8-18.4-27.51-53.64-13.47C268.2,368.77,244,365.51,244,365.51c-99.67,2-107.58-43.94-107.58-43.94l-.37-.73c-8.77,3.75-25.37,10.5-38.69,13.83a174.47,174.47,0,0,1-18,3.42c2.34,6.8,26.43,69.66,118.19,67,0,0,45.92-1.18,84.73-19,0,0,38.53-15.27,42.91-.94,6.76,10.69,8.8-8.92-5.61-12.7,0,0,7.47-5.05,18.65,9.19,6.55,8.34,8.12-13-15.12-19.86C339.67,358.56,353.17,378.85,352.07,370.9Z"/><line class="cls-12" x1="390.73" y1="470.49" x2="480.29" y2="470.46"/><path class="cls-4" d="M486.49,413.18H245.38a4,4,0,1,1,0-8H486.49a4,4,0,0,1,0,8Z"/><path class="cls-4" d="M301.55,421.18H276.43c-1.21,0-3-1.79-3-4a4,4,0,0,1,4-4h25.12a4,4,0,0,1,4,4C306.55,419.39,304.76,421.18,301.55,421.18Z"/><path class="cls-7" d="M406,157.05H302.88a18.09,18.09,0,0,0-18.09,18.09v56.62a18.09,18.09,0,0,0,18.09,18.09h63.7c-.66,28.3,24.22,31.47,34.12,31.62a1,1,0,0,0,.53-1.94c-16.85-10.16-14.77-29.68-14.77-29.68H406a18.09,18.09,0,0,0,18.09-18.09V175.14A18.09,18.09,0,0,0,406,157.05Z"/><polyline class="cls-7" points="336.32 186.03 320.75 201.59 336.32 217.16"/><polyline class="cls-7" points="372.56 186.03 388.13 201.59 372.56 217.16"/><line class="cls-7" x1="344.29" y1="221.24" x2="364.59" y2="181.95"/><rect class="cls-4" x="285.93" y="421.18" width="8.12" height="49.25"/><path class="cls-4" d="M451,421.18H425.83c-1.21,0-3-1.79-3-4a4,4,0,0,1,4-4H452a4,4,0,0,1,4,4C456,419.39,454.16,421.18,451,421.18Z"/><rect class="cls-4" x="435.33" y="421.18" width="8.12" height="49.25"/></g></g></svg>