<svg xmlns="http://www.w3.org/2000/svg" viewBox="0 0 450.32 432"><defs><style>.cls-1{fill:#171717;}.cls-10,.cls-11,.cls-2,.cls-4,.cls-6,.cls-7,.cls-8,.cls-9{fill:none;}.cls-10,.cls-11,.cls-12,.cls-2,.cls-4,.cls-6,.cls-7,.cls-8,.cls-9{stroke:#2f2f2f;}.cls-11,.cls-2{stroke-linejoin:round;}.cls-10,.cls-11,.cls-12,.cls-2,.cls-4,.cls-6,.cls-7{stroke-width:2px;}.cls-3{fill:#2f2f2f;}.cls-12,.cls-4,.cls-7,.cls-9{stroke-miterlimit:10;}.cls-12,.cls-5{fill:#ff1e56;}.cls-10,.cls-11,.cls-12,.cls-7,.cls-9{stroke-linecap:round;}</style></defs><title>about</title><g id="Layer_2" data-name="Layer 2"><g id="Layer_1-2" data-name="Layer 1"><path class="cls-1" d="M198.83,91.18c1.76.75-1.81,11.81-7.31,12.49-1.54-2.18-1.23-3.64-1.23-3.64s.42-8.87,5.29-9.48C198.59,90.52,197.08,90.43,198.83,91.18Z"/><path class="cls-2" d="M230.66,56.82c-5.53-8.94-12-17.58-18.3-26,0,0,4,8.89-1.7,23.05v0l0,.19.28.11c6.54,14.76,2.18,22.78,1,24.54l0,.07c.41,6.56-4.37,14.63-5.2,16a0,0,0,0,0,.07,0C218.7,86.06,220,76.29,220,76.29c.27,7.61-8.25,19.74-8.25,19.74,14.44-10.5,16.3-17.27,16.41-19.8.69,9.48-2.9,13.1-2.9,13.1,12.87-5.43,7.37-20.49,7.37-20.49,2.18,4.17,3,11.61,3,11.61C241,68,230.66,56.82,230.66,56.82Z"/><path class="cls-2" d="M127.77,102.34a18.72,18.72,0,0,1-3.87,7.57,22.55,22.55,0,0,0,5.19.63s-2.57,18.58,4.74,26.52c10.26,11.14,21.77,23.64,32.31,30.24s15.61,2.43,17.15-2.43a36.67,36.67,0,0,1,3.55-8c1.59-4.86,8.79-5.35,8.79-5.35,3-5.16,1.66-8.71,1.66-8.71a6.61,6.61,0,0,0,5.05-3.31,16.63,16.63,0,0,1-1.33-6.68c9.66-1.56,15-4.23,15-4.23s-9.36-15.37-10.9-25.75c0,0,0-16.27,6.61-23.76,0,0,6.73-8.07-.74-24.91l-.39-.15c-2.84,7-8,15.23-17.21,24.32,0,0,1.86-2.37,1.79-7,0,0-3.27,10.73-42.37,5.34,0,0,11.22-11.49,11.77-21,0,0-5.53,12.41-21.4,20,0,0-5,2.27-5.53,18.21"/><path class="cls-3" d="M200.62,69.41s6.51,2.28,8.14,5.06c-.26,2-3.91,4.36-3.91,4.36a12.62,12.62,0,0,1-3.56-4c-1.95-.9-3.68-1.61-3.68-1.61l-6-2.22Z"/><path class="cls-4" d="M285.14,307s-3.51,2.38-.15,3.61a31.54,31.54,0,0,1,19.59-8.2c7.38-.41,10.11-2.14,11-3.81C308.32,298.08,295.42,297.24,285.14,307Z"/><path class="cls-5" d="M437.08,230.78,391.82,353.86c-.48,1.32-.59,2.79.74,3.25l4.88,2.56c1.33.46,1.35-1.89,1.83-3.21l46.23-122a2.5,2.5,0,0,0-1.55-3.23l-3.59-2A2.6,2.6,0,0,0,437.08,230.78Z"/><path class="cls-2" d="M296.07,331.48a31.08,31.08,0,0,1,10,4.93,22.55,22.55,0,0,1,7.2,3.31c4,2.5,4.42.7,4.17-1C312.63,335.23,304.81,329.75,296.07,331.48Z"/><path class="cls-6" d="M193.28,139.93a17,17,0,0,0-9.75-3.46"/><path class="cls-6" d="M199.33,127.57s-2.75-1.48.9-1.1a19.1,19.1,0,0,1,4,1"/><path class="cls-6" d="M118.31,79.92c-2.51-6.52,2.1-13.41,5.76-13,3.4.66,3.49,5.09,3.49,5.09"/><path class="cls-4" d="M113.7,227.58c-11.59-47.25-48-33.89-48-33.89s-20,7.53-25.37,28.11c-4.65,17.72,10.38,74.45,13.84,87.05a3.25,3.25,0,0,0,3.31,2.39,178.08,178.08,0,0,0,31.78-4.64c14-3.5,32-11.12,38.5-14a3.24,3.24,0,0,0,1.83-3.79Z"/><path class="cls-7" d="M345.06,431l-195.62-.11s-4.82-35-5.77-63.11c-53.51-12.18-69.06-52.85-70.84-58a158.65,158.65,0,0,0,16.44-3.13c12.19-3.05,27.39-9.23,35.43-12.67l.33.68s2.2,12.71,19.35,23.85c.17-2.6.38-5.2.6-7.81,17.88-44-2.06-104.43-2.06-104.43-.9-3-3.17-11.29-3.17-11.29a66,66,0,0,0,3.87-12,2.28,2.28,0,0,0-.68-2.18c-30-27.92-56-39.52-61.12-41.65a.87.87,0,0,0-1.17.52c-.7,2-3.28,7.4-12.4,14.49,0,0-24.38,17-32.76,31.63S16.42,207.26,9.78,304c0,0-.93,13.23-1.6,21.91-.77,9.86-7.18,105-7.18,105"/><path class="cls-1" d="M299.16,361.87h-43.5c-1.7,0-3.44-.1-5.14,0-2.67.18-2.13,3.28-2.13,5.2,0,.93-.19,1.85.7,2.45a3.81,3.81,0,0,0,2.06.54c2.9.07,5.82,0,8.73,0H384.56c.89,0,2.22-.25,2.63-1.19a6.22,6.22,0,0,0,.1-2.28c0-1,0-2,0-2.94,0-1.16-.45-1.78-1.71-1.78"/><path class="cls-4" d="M223.56,334.85s20.83,2.8,47.34-6.49a111.52,111.52,0,0,0,11.34-6.86c28.1-3.26,37.59-13.09,27.74-11.78-35.9,4.78-24.84-2.73-24.84-2.73,17.46-16.56,42.52-2.58,34.39-11.52-5.91-6.51-33.94-5.5-48.6,6.74-18,15-15.34,14.4-75.72,15.3-23.46.35-38.67-5.64-48.26-12.23-.6,1.81-1.25,3.6-2,5.37q-.33,3.92-.6,7.81C158.42,327.58,182.47,335.66,223.56,334.85Z"/><path class="cls-4" d="M133.83,137.06c-7.31-7.94-4.74-26.52-4.74-26.52a22.44,22.44,0,0,1-5.18-.64c-2.93,3.53-8,7-16.5,7.3-4.9.15-5.76-.36-5.76-.36-1.07,5.35-16.5,23.58-16.5,23.58l.61.42c8.51,4,27.27,13.92,49.16,32.72,6.65-14,11.16-16.65,11.16-16.65l10.75,3.38C149.07,153.6,141.13,145,133.83,137.06Z"/><path class="cls-8" d="M183.63,91.16a39.12,39.12,0,0,0,8.76,13.16"/><path class="cls-9" d="M192.22,104.1s-6.43-6.72-8.59-12.94h0s13.86-3.08,15.92,1.28"/><path class="cls-10" d="M182.61,90.92s12.93-2.56,17.47,1.38a4.46,4.46,0,0,1-.77,2"/><path d="M193.34,98.26c.63.13,1.41-.63,1.74-1.7s.08-2-.54-2.18-1.4.63-1.73,1.71S192.72,98.13,193.34,98.26Z"/><path class="cls-3" d="M447.06,227.93l-1.3-.55c-1.41-.51-4.8-1.39-5.32,0L390.06,364.64H243.57c-1.5,0-2.56,2.13-2.56,3.63v1.11c0,1.5,1.21,1.8,2.71,1.8H392.63a4.19,4.19,0,0,0,3.66-2.74l52.37-137A2.7,2.7,0,0,0,447.06,227.93Z"/><path class="cls-11" d="M197.39,16c17.22,8.6,19.76,15.13,19.76,15.13S203.19,1.55,157.5,1s-61.83,18.3-61.83,18.3S86.07,27.87,89,52,97.21,90,97.21,90s5.89,17.76,5.49,21.6a19,19,0,0,1-1,5.23s.86.51,5.76.36c17.62-.57,20.36-14.86,20.36-14.86-10.23,5.94-16.67-20.06-16.7-26.49,0,0-.44-16.62,12.31-17.77,11.59-1,10,16.43,10,16.43-.54,16.47,4.26,19.35,4.26,19.35.55-15.94,5.53-18.21,5.53-18.21,15.87-7.61,21.4-20,21.4-20-.55,9.51-11.77,21-11.77,21,39.1,5.39,42.37-5.34,42.37-5.34.07,4.68-1.79,7-1.79,7,28-27.67,19-47.55,19-47.55S203.73,19.22,197.39,16Z"/><path class="cls-4" d="M322.54,339.78c-1-7.28-16.85-25.19-49.13-12.34-27.69,10.39-49.85,7.41-49.85,7.41C132.28,336.64,125,294.61,125,294.61l-.33-.68c-8,3.44-23.24,9.62-35.43,12.67a158.65,158.65,0,0,1-16.44,3.13C75,316,97,373.54,181.07,371.14c0,0,42.06-1.09,77.6-17.39,0,0,35.3-14,39.3-.86,6.19,9.79,8.07-8.17-5.14-11.63,0,0,6.85-4.63,17.09,8.42,6,7.64,7.43-11.92-13.85-18.2C311.18,328.48,323.54,347.06,322.54,339.78Z"/><line class="cls-12" x1="357.95" y1="431" x2="439.97" y2="430.97"/><path class="cls-4" d="M445.65,378.51H224.82a3.67,3.67,0,1,1,0-7.33H445.65a3.67,3.67,0,1,1,0,7.33Z"/><path class="cls-4" d="M276.27,385.83h-23c-1.1,0-2.74-1.64-2.74-3.66a3.66,3.66,0,0,1,3.66-3.66h23a3.66,3.66,0,0,1,3.67,3.66C280.85,384.19,279.21,385.83,276.27,385.83Z"/><path class="cls-7" d="M371.93,143.92H277.49a16.57,16.57,0,0,0-16.57,16.57v51.85a16.57,16.57,0,0,0,16.57,16.57h58.33c-.6,25.92,22.19,28.83,31.26,29a1,1,0,0,0,.48-1.78C352.13,246.8,354,228.91,354,228.91h17.9a16.57,16.57,0,0,0,16.57-16.57V160.49A16.57,16.57,0,0,0,371.93,143.92Z"/><polyline class="cls-7" points="308.11 170.47 293.86 184.72 308.11 198.97"/><polyline class="cls-7" points="341.31 170.47 355.56 184.72 341.31 198.97"/><line class="cls-7" x1="315.41" y1="202.71" x2="334.01" y2="166.73"/><rect class="cls-4" x="261.96" y="385.83" width="7.43" height="45.11"/><path class="cls-4" d="M413.1,385.83h-23c-1.1,0-2.74-1.64-2.74-3.66a3.66,3.66,0,0,1,3.66-3.66h23a3.66,3.66,0,0,1,3.67,3.66C417.68,384.19,416,385.83,413.1,385.83Z"/><rect class="cls-4" x="398.79" y="385.83" width="7.43" height="45.11"/></g></g></svg>