<svg xmlns="http://www.w3.org/2000/svg" viewBox="0 0 1689.15 625.98"><defs><style>.cls-1,.cls-3,.cls-5,.cls-6{fill:none;stroke-width:2px;}.cls-1,.cls-3,.cls-6{stroke:#171717;}.cls-1,.cls-6{stroke-miterlimit:10;}.cls-2{fill:#171717;}.cls-3,.cls-5,.cls-6{stroke-linecap:round;}.cls-3,.cls-5{stroke-linejoin:round;}.cls-4{fill:#0d0d0d;}.cls-5{stroke:#ff1e56;}.cls-7{fill:#ff1e56;}</style></defs><title>contact</title><g id="Layer_2" data-name="Layer 2"><g id="Layer_1-2" data-name="Layer 1"><rect class="cls-1" x="1" y="386.6" width="8.12" height="49.25"/></g><g id="Layer_4" data-name="Layer 4"><polygon class="cls-2" points="765.42 624.33 772.85 610.18 775.25 625.98 765.42 624.33"/></g><g id="Layer_3" data-name="Layer 3"><rect class="cls-3" x="1504.62" y="200.53" width="77.18" height="65.18"/><path class="cls-3" d="M1504.62,265.71h-11.47a1,1,0,0,1-1-1V250a1,1,0,0,1,1-1h11.47"/><path class="cls-3" d="M1581.8,249h11.47a1,1,0,0,1,1,1v14.71a1,1,0,0,1-1,1H1581.8"/><path class="cls-3" d="M1581.8,221.37v44.34h-77.18V221.35A26.65,26.65,0,0,0,1478,248V433.12a4.23,4.23,0,0,0,4.24,4.23h17.29a4.23,4.23,0,0,0,4.24-4.23V404.88h78.35v28.24a4.23,4.23,0,0,0,4.23,4.23h17.3a4.23,4.23,0,0,0,4.23-4.23V248A26.63,26.63,0,0,0,1581.8,221.37Zm5.29,166.57h-87.76a3.18,3.18,0,0,1-3.18-3.18V335.35h94.12v49.41A3.18,3.18,0,0,1,1587.09,387.94Z"/><path class="cls-3" d="M1593,335.35h-99.41l.74-11.47a1.78,1.78,0,0,1,1.75-1.47h94.43a1.78,1.78,0,0,1,1.75,1.47Z"/><circle class="cls-3" cx="1571.3" cy="345.24" r="3.35"/><circle class="cls-3" cx="1552.41" cy="345.24" r="3.35"/><circle class="cls-3" cx="1533.53" cy="345.24" r="3.35"/><circle class="cls-3" cx="1514.65" cy="345.24" r="3.35"/><circle class="cls-3" cx="1571.3" cy="361.65" r="3.35"/><circle class="cls-3" cx="1552.41" cy="361.65" r="3.35"/><circle class="cls-3" cx="1533.53" cy="361.65" r="3.35"/><circle class="cls-3" cx="1514.65" cy="361.65" r="3.35"/><circle class="cls-3" cx="1571.3" cy="378.06" r="3.35"/><circle class="cls-3" cx="1552.41" cy="378.06" r="3.35"/><circle class="cls-3" cx="1533.53" cy="378.06" r="3.35"/><circle class="cls-3" cx="1514.65" cy="378.06" r="3.35"/><path class="cls-3" d="M1344.15,205.59h25.41a0,0,0,0,1,0,0V433.11a4.24,4.24,0,0,1-4.24,4.24h-16.93a4.24,4.24,0,0,1-4.24-4.24V205.59A0,0,0,0,1,1344.15,205.59Z"/><path class="cls-3" d="M1297,33.47h137.65a46.71,46.71,0,0,1,46.71,46.71V205.59a0,0,0,0,1,0,0H1250.33a0,0,0,0,1,0,0V80.18A46.71,46.71,0,0,1,1297,33.47Z"/><path class="cls-3" d="M1434.68,33.47h0a46.71,46.71,0,0,1,46.71,46.71V205.59a0,0,0,0,1,0,0H1388a0,0,0,0,1,0,0V80.18A46.71,46.71,0,0,1,1434.68,33.47Z"/><path class="cls-3" d="M1402,190.1V86.27c0-18.47,14-34,31.89-34.44,18.38-.45,33.47,14.89,33.47,33.8V190.1a1.81,1.81,0,0,1-1.79,1.84h-61.79A1.81,1.81,0,0,1,1402,190.1Z"/><polyline class="cls-3" points="1274.74 1 1313.05 1 1313.05 86.25"/><rect class="cls-4" x="1417.68" y="84.88" width="34" height="11.41" rx="3.21"/><path class="cls-5" d="M1305.27,137.88h41a2.34,2.34,0,0,1,2.34,2.34v24.15a2.3,2.3,0,0,1-2.3,2.3h-41a2.3,2.3,0,0,1-2.3-2.3V140.22A2.34,2.34,0,0,1,1305.27,137.88Z"/><path class="cls-5" d="M1303.68,138.51l18.38,15.2a5.78,5.78,0,0,0,7.39,0l18.37-15.21"/><circle class="cls-4" cx="1313.05" cy="86.25" r="12.71"/><line class="cls-6" x1="1446.97" y1="437.35" x2="1628.38" y2="437.35"/><line class="cls-6" x1="1198.62" y1="437.35" x2="1417.33" y2="437.35"/><line class="cls-6" x1="1645.68" y1="437.35" x2="1688.15" y2="437.35"/><path class="cls-7" d="M1539.11,214.45h-24a1.84,1.84,0,0,0-1.9,1.9h0a1.84,1.84,0,0,0,1.9,1.9h24a1.84,1.84,0,0,0,1.9-1.9h0A1.84,1.84,0,0,0,1539.11,214.45Z"/><path class="cls-2" d="M1547.91,214.45h23.4a1.84,1.84,0,0,1,1.9,1.9h0a1.84,1.84,0,0,1-1.9,1.9h-23.4a1.84,1.84,0,0,1-1.9-1.9h0A1.9,1.9,0,0,1,1547.91,214.45Z"/><path class="cls-2" d="M1530.41,224.55h30.2a1.84,1.84,0,0,1,1.9,1.9h0a1.84,1.84,0,0,1-1.9,1.9h-30.2a1.84,1.84,0,0,1-1.9-1.9h0A1.84,1.84,0,0,1,1530.41,224.55Z"/><path class="cls-7" d="M1569.41,234.65h-19.1a1.84,1.84,0,0,0-1.9,1.9h0a1.84,1.84,0,0,0,1.9,1.9h19.1a1.84,1.84,0,0,0,1.9-1.9h0A1.84,1.84,0,0,0,1569.41,234.65Z"/><path class="cls-2" d="M1515.11,244.65h51.2a1.84,1.84,0,0,1,1.9,1.9h0a1.84,1.84,0,0,1-1.9,1.9h-51.2a1.84,1.84,0,0,1-1.9-1.9h0A2,2,0,0,1,1515.11,244.65Z"/></g></g></svg>