<svg xmlns="http://www.w3.org/2000/svg" viewBox="0 0 35.76 24.87"><defs><style>.cls-1{fill:none;stroke:#ff1e56;stroke-miterlimit:10;stroke-width:2px;}.cls-2{fill:#ff1e56;}</style></defs><title>contact</title><g id="Layer_2" data-name="Layer 2"><g id="Layer_6" data-name="Layer 6"><line class="cls-1" x1="34.48" y1="23.22" x2="20.99" y2="12.43"/><line class="cls-1" x1="1.28" y1="23.22" x2="14.33" y2="12.43"/><path class="cls-2" d="M31.94,2a1.82,1.82,0,0,1,1.82,1.82V21.05a1.82,1.82,0,0,1-1.82,1.82H3.82A1.83,1.83,0,0,1,2,21.05V3.82A1.83,1.83,0,0,1,3.82,2H31.94m0-2H3.82A3.82,3.82,0,0,0,0,3.82V21.05a3.82,3.82,0,0,0,3.82,3.82H31.94a3.82,3.82,0,0,0,3.82-3.82V3.82A3.82,3.82,0,0,0,31.94,0Z"/><path class="cls-1" d="M1.66,1.39,17.35,14.55a.84.84,0,0,0,1.06,0L34,1.49"/></g></g></svg>