<svg id="Layer_6" data-name="Layer 6" xmlns="http://www.w3.org/2000/svg" viewBox="0 0 28 28"><defs><style>.cls-1{fill:none;stroke:#ff1e56;stroke-miterlimit:10;stroke-width:2px;}.cls-2{fill:#ff1e56;}</style></defs><title>mail-icon</title><line class="cls-1" x1="26.29" y1="21.93" x2="16.37" y2="14"/><line class="cls-1" x1="1.62" y1="21.99" x2="11.29" y2="14"/><path class="cls-2" d="M23.82,6.51a1.83,1.83,0,0,1,1.83,1.82V19.67a1.83,1.83,0,0,1-1.83,1.82H4.18a1.83,1.83,0,0,1-1.83-1.82V8.33A1.83,1.83,0,0,1,4.18,6.51H23.82m0-2H4.18A3.82,3.82,0,0,0,.35,8.33V19.67a3.82,3.82,0,0,0,3.83,3.82H23.82a3.82,3.82,0,0,0,3.83-3.82V8.33a3.82,3.82,0,0,0-3.83-3.82Z"/><path class="cls-1" d="M2.21,6.07l11.38,9.55a.63.63,0,0,0,.81,0L25.94,5.94"/></svg>