<svg xmlns="http://www.w3.org/2000/svg" viewBox="0 0 97 91.45"><defs><style>.cls-1{fill:none;stroke:#171717;stroke-linecap:round;stroke-linejoin:round;stroke-width:2px;}.cls-2{fill:#171717;}</style></defs><title>des</title><g id="Layer_2" data-name="Layer 2"><g id="Layer_5" data-name="Layer 5"><line class="cls-1" x1="48.27" y1="58.17" x2="41.5" y2="56.69"/><line class="cls-1" x1="59.27" y1="7.94" x2="52.5" y2="6.46"/><line class="cls-1" x1="56.52" y1="20.5" x2="49.75" y2="19.02"/><line class="cls-1" x1="53.77" y1="33.06" x2="47" y2="31.57"/><line class="cls-1" x1="51.02" y1="45.61" x2="44.25" y2="44.13"/><line class="cls-1" x1="45.52" y1="70.73" x2="38.75" y2="69.25"/><line class="cls-1" x1="42.77" y1="83.28" x2="36" y2="81.8"/><line class="cls-1" x1="56.04" y1="13.95" x2="51.09" y2="12.87"/><line class="cls-1" x1="53.3" y1="26.46" x2="48.35" y2="25.37"/><line class="cls-1" x1="45.09" y1="63.97" x2="40.14" y2="62.89"/><line class="cls-1" x1="50.57" y1="38.96" x2="45.62" y2="37.88"/><line class="cls-1" x1="47.83" y1="51.47" x2="42.88" y2="50.38"/><line class="cls-1" x1="42.35" y1="76.48" x2="37.4" y2="75.4"/><line class="cls-1" x1="15.68" y1="35.29" x2="15.68" y2="47.96"/><rect class="cls-1" x="11.92" y="21.43" width="7.53" height="13.86"/><polygon class="cls-1" points="1 89.99 15.68 51.95 30.06 89.98 19.44 42.89 11.92 42.89 1 89.99"/><circle class="cls-2" cx="15.68" cy="47.96" r="8.16"/><rect class="cls-1" x="44.06" y="1.46" width="13.86" height="88.53" transform="translate(10.96 -9.85) rotate(12.35)"/><line class="cls-1" x1="67.17" y1="52.89" x2="62.92" y2="52.89"/><line class="cls-1" x1="67.17" y1="76.35" x2="62.92" y2="76.35"/><line class="cls-1" x1="67.17" y1="37.25" x2="62.92" y2="37.25"/><line class="cls-1" x1="67.17" y1="45.07" x2="62.92" y2="45.07"/><line class="cls-1" x1="67.17" y1="60.71" x2="62.92" y2="60.71"/><line class="cls-1" x1="67.17" y1="68.53" x2="62.92" y2="68.53"/><line class="cls-1" x1="67.17" y1="84.17" x2="62.92" y2="84.17"/><path class="cls-1" d="M73.06,35.1V30.82H62.92V90H73.06V85.7a25.42,25.42,0,0,0,0-50.6Zm0,41.21V44.5a16.09,16.09,0,0,1,0,31.81Z"/></g></g></svg>