<svg xmlns="http://www.w3.org/2000/svg" viewBox="0 0 58 58"><defs><style>.cls-1{fill:none;stroke:#2f2f2f;stroke-linecap:round;stroke-linejoin:round;stroke-width:2px;}.cls-2{fill:#2f2f2f;}</style></defs><title>des</title><g id="Layer_5" data-name="Layer 5"><line class="cls-1" x1="28.87" y1="36.15" x2="24.98" y2="35.29"/><line class="cls-1" x1="35.18" y1="7.31" x2="31.29" y2="6.46"/><line class="cls-1" x1="33.6" y1="14.52" x2="29.71" y2="13.67"/><line class="cls-1" x1="32.02" y1="21.73" x2="28.14" y2="20.88"/><line class="cls-1" x1="30.44" y1="28.94" x2="26.56" y2="28.09"/><line class="cls-1" x1="27.29" y1="43.35" x2="23.4" y2="42.5"/><line class="cls-1" x1="25.71" y1="50.56" x2="21.82" y2="49.71"/><line class="cls-1" x1="33.33" y1="10.76" x2="30.49" y2="10.14"/><line class="cls-1" x1="31.76" y1="17.94" x2="28.92" y2="17.32"/><line class="cls-1" x1="27.04" y1="39.48" x2="24.2" y2="38.85"/><line class="cls-1" x1="30.19" y1="25.12" x2="27.34" y2="24.5"/><line class="cls-1" x1="28.61" y1="32.3" x2="25.77" y2="31.68"/><line class="cls-1" x1="25.47" y1="46.65" x2="22.63" y2="46.03"/><line class="cls-1" x1="10.16" y1="23.01" x2="10.16" y2="30.28"/><rect class="cls-1" x="8" y="15.06" width="4.32" height="7.96"/><polygon class="cls-1" points="1.74 54.41 10.16 32.57 18.42 54.4 12.32 27.38 8 27.38 1.74 54.41"/><circle class="cls-2" cx="10.16" cy="30.28" r="4.68"/><rect class="cls-1" x="26.45" y="3.59" width="7.96" height="50.82" transform="translate(6.91 -5.84) rotate(12.35)"/><line class="cls-1" x1="39.71" y1="33.11" x2="37.28" y2="33.11"/><line class="cls-1" x1="39.71" y1="46.58" x2="37.28" y2="46.58"/><line class="cls-1" x1="39.71" y1="24.13" x2="37.28" y2="24.13"/><line class="cls-1" x1="39.71" y1="28.62" x2="37.28" y2="28.62"/><line class="cls-1" x1="39.71" y1="37.6" x2="37.28" y2="37.6"/><line class="cls-1" x1="39.71" y1="42.09" x2="37.28" y2="42.09"/><line class="cls-1" x1="39.71" y1="51.07" x2="37.28" y2="51.07"/><path class="cls-1" d="M43.1,22.9V20.45H37.28v34H43.1V52a14.6,14.6,0,0,0,0-29.05Zm0,23.66V28.3a9.24,9.24,0,0,1,0,18.26Z"/></g></svg>