<?xml version="1.0" ?><!DOCTYPE svg  PUBLIC '-//W3C//DTD SVG 1.1//EN'  'http://www.w3.org/Graphics/SVG/1.1/DTD/svg11.dtd'><svg height="512px" fill="#fff" style="enable-background:new 0 0 512 512;" version="1.1" viewBox="0 0 512 512" width="512px" xml:space="preserve" xmlns="http://www.w3.org/2000/svg" xmlns:xlink="http://www.w3.org/1999/xlink"><g id="comp_x5F_129-fiverr"><g><g><path d="M413.696,399.752V169.75H184.32v-14.375c0-23.779,19.295-43.124,43.004-43.124h43.008V26h-43.008     C156.191,26,98.306,84.044,98.306,155.375v14.375H40.962V256h57.342v143.752H40.962V486h200.705v-86.248H184.32V256h144.157     v143.752h-58.145V486h200.705v-86.248H413.696z"/><path d="M370.685,112.25c23.751,0,43.012-19.305,43.012-43.125c0-23.821-19.261-43.125-43.012-43.124     c-23.749,0-43.005,19.303-43.005,43.124C327.68,92.945,346.936,112.25,370.685,112.25z"/></g></g></g><g id="Layer_1"/></svg>