<svg xmlns="http://www.w3.org/2000/svg" viewBox="0 0 600.5 481"><defs><style>.cls-1,.cls-2,.cls-4,.cls-5,.cls-7{fill:none;stroke-width:2px;}.cls-1,.cls-2,.cls-4,.cls-5{stroke:#2f2f2f;}.cls-1,.cls-2{stroke-miterlimit:10;}.cls-2,.cls-5,.cls-7{stroke-linecap:round;}.cls-3{fill:#171717;}.cls-4,.cls-5,.cls-7{stroke-linejoin:round;}.cls-6{fill:#2f2f2f;}.cls-7{stroke:#ff1e56;}.cls-8{fill:#ff1e56;}</style></defs><title>hero</title><g id="Layer_2" data-name="Layer 2"><g id="Layer_2-2" data-name="Layer 2"><path class="cls-1" d="M350.08,138.58a3.6,3.6,0,0,1-2.56,1.48h-94a3.93,3.93,0,0,1-3.87-3.87v-.49c3.13-26.17,24.85-46,50.69-46s47.56,19.75,50.61,46A3.7,3.7,0,0,1,350.08,138.58Z"/><path class="cls-2" d="M180.8,238.07c-1.89,2.55-9.46,12.83-11.35,15.47"/><path class="cls-2" d="M210.18,198.07c-8.39,11.36-9.87,13.42-18.18,24.77"/><path class="cls-2" d="M242,154.71c-3,4.11-18.85,25.67-21.81,29.7"/><path class="cls-2" d="M260.46,238.07c-3.54,14.48-.82,3.21-4.36,17.69"/><path class="cls-2" d="M270.09,198.07c-4.11,17.53-4.61,18.35-7.32,28.72"/><path class="cls-2" d="M280.87,154.71c-.74,3-6.67,27.4-7.41,30.36"/><path class="cls-2" d="M341.19,242.67c3.54,14.49-.33-1.39,3.21,13.09"/><path class="cls-2" d="M331.89,204.49c3.54,14.48,1.89,7.82,5.43,22.3"/><path class="cls-2" d="M319.71,154.71c2.06,8.31,7.24,29.7,9.3,37.93"/><path class="cls-2" d="M413.28,229.26c4.85,6.67,14.48,19.75,19.42,26.42"/><path class="cls-2" d="M386.45,192.72c5.26,7.16,13.25,18,18.43,25.19"/><path class="cls-2" d="M358.55,154.71c3.7,5,15.39,21,19.09,26"/><line class="cls-1" x1="300.21" y1="89.78" x2="300.21"/><path class="cls-3" d="M250.7,459.1c-1.4,0-1.4,1.15-1.4,2.22h0a2.19,2.19,0,0,0,2.39,2.06h50.6a2.24,2.24,0,0,0,2.39-2.06h0c0-1,0-2.14-1.65-2.14a2.63,2.63,0,0,0-.74.08h-50.6a5.17,5.17,0,0,0-1-.16Z"/><polygon class="cls-1" points="557.53 431.2 563.87 430.38 568.8 470.13 562.06 471.03 557.53 431.2"/><path class="cls-1" d="M563.87,430.38c.16-.17.16-.41.24-.58v-.33l-1-6.83a1.54,1.54,0,0,0-1.65-1.15l-2.14.25-2.14.25c-.58.32-.82.49-.82,1.64l.57,6.58a1.73,1.73,0,0,0,.25.58c.08.16.17.16.25.25"/><path class="cls-3" d="M382.66,381.83a3,3,0,0,1,3,2.14v-7.82a10.06,10.06,0,0,0-2.31-.33h-.82a2.27,2.27,0,0,0-2.55,2.55v.91A2.36,2.36,0,0,0,382.66,381.83Z"/><path class="cls-3" d="M385.71,419.19a3.09,3.09,0,0,1-3,2.14,2.26,2.26,0,0,0-2.55,2.55v.9a2.27,2.27,0,0,0,2.55,2.55h.83a10.73,10.73,0,0,0,2.3-.33l-.08-7.81Z"/><path class="cls-1" d="M392.13,294.35H162.78A13.67,13.67,0,0,0,149,307.92V459.1H406V307.92a13.67,13.67,0,0,0-13.82-13.57Z"/><path class="cls-1" d="M304.08,333.69H201.29a7.07,7.07,0,0,0-7.07,7.07v79.41a7.08,7.08,0,0,0,7.07,7.08H304a7.08,7.08,0,0,0,7.08-7.08V340.76a7,7,0,0,0-7-7.07Z"/><line class="cls-4" x1="194.22" y1="348.42" x2="311.15" y2="348.42"/><path class="cls-2" d="M440.84,479.67a20.58,20.58,0,0,1,41.15,0"/><line class="cls-2" x1="111.43" y1="479.92" x2="571.85" y2="479.92"/><line class="cls-2" x1="581.31" y1="479.92" x2="599.5" y2="479.92"/><line class="cls-2" x1="20.83" y1="479.92" x2="1" y2="479.92"/><line class="cls-2" x1="29.97" y1="479.92" x2="101.48" y2="479.92"/><path class="cls-1" d="M107.81,389.48H37c-4.61,0-8.39,3.21-8.39,7.16v2c0,3.95,3.7,7.16,8.39,7.16h70.77c4.61,0,8.4-3.21,8.4-7.16v-2c0-3.95-3.79-7.16-8.4-7.16Z"/><path class="cls-1" d="M103,424H41.73a3.2,3.2,0,0,0-3.29,3.46l4.12,29.7a3.22,3.22,0,0,0,3.29,2.72h53a3.28,3.28,0,0,0,3.29-2.72l4.2-29.7A3.28,3.28,0,0,0,103,424Z"/><line class="cls-4" x1="42.39" y1="405.86" x2="44.2" y2="423.96"/><line class="cls-4" x1="102.55" y1="405.86" x2="100.32" y2="423.96"/><polygon class="cls-4" points="45.35 389.48 46.59 379.85 74.81 379.85 98.19 379.85 99.42 389.48 45.35 389.48"/><polyline class="cls-5" points="106.99 346.36 78.35 353.44 72.43 379.85"/><path class="cls-4" d="M48.89,459.92,51,475.56A5,5,0,0,0,56,479.92l32.18.08a5.06,5.06,0,0,0,5-4.28l2.3-15.8Z"/><circle class="cls-3" cx="276.92" cy="304.72" r="5.43"/><circle class="cls-6" cx="205.33" cy="341.83" r="2.47"/><circle class="cls-6" cx="212.07" cy="341.83" r="2.47"/><circle class="cls-6" cx="218.41" cy="341.83" r="2.47"/><path class="cls-1" d="M534.24,384H513.09a6.78,6.78,0,0,0-6.58,6.91v.58a6.78,6.78,0,0,0,6.58,6.91h21.15a6.79,6.79,0,0,0,6.59-6.91v-.58a6.79,6.79,0,0,0-6.59-6.91Z"/><path class="cls-5" d="M506.51,391.13h-6.67a7.64,7.64,0,0,0-7.65,7.65v73.48a7.65,7.65,0,0,0,7.65,7.66h48.89a7.65,7.65,0,0,0,7.65-7.66v-73.4a7.64,7.64,0,0,0-7.65-7.65h-8"/><path class="cls-1" d="M570,470.54a1.28,1.28,0,0,0-1.24-.41h0l-6.74.9h0a1.3,1.3,0,0,0-1.07.74,1.12,1.12,0,0,0,.16,1.24l2.55,3.53,1.73,2.39a1.45,1.45,0,0,0,1.15.58h.17a1.21,1.21,0,0,0,1.07-.83l.74-2.14,1.73-4.69A1.66,1.66,0,0,0,570,470.54Z"/><path class="cls-1" d="M523.71,403a7.65,7.65,0,1,0,7.65,7.65,7.68,7.68,0,0,0-7.65-7.65Z"/><line class="cls-2" x1="501.49" y1="428.16" x2="516.38" y2="428.16"/><polyline class="cls-7" points="524.78 446.26 527.99 450.54 538.85 442.72"/><line class="cls-5" x1="501.49" y1="446.59" x2="516.38" y2="446.59"/><line class="cls-2" x1="501.49" y1="465.02" x2="516.38" y2="465.02"/><polyline class="cls-7" points="524.78 427.66 527.99 431.94 538.85 424.13"/><path class="cls-3" d="M359.13,411.78c0-2.71-1-4.52-3.13-5.68-1.48-.82-2.14-1.4-2.14-2.79v-2.39c0-1.65.74-2.06,2.06-2.88,2.14-.91,3.21-2.88,3.21-5.76v-5.19c0-4.11,1.48-7.24,3.7-8.47a10.65,10.65,0,0,1,5.68-1.89h.82a2.26,2.26,0,0,1,2.55,2.55v.9a2.3,2.3,0,0,1-2.55,2.55c-2.38,0-3.54,1.73-3.54,5.19v6.42a8,8,0,0,1-4.52,7.57l-.58.16v.17a4.86,4.86,0,0,1,1.73.9c1.48.91,3.29,3.05,3.29,6.83v7.16c0,3.37,1.15,5.1,3.54,5.1a2.27,2.27,0,0,1,2.55,2.55v.91a2.26,2.26,0,0,1-2.55,2.55h-.82a10.88,10.88,0,0,1-5.68-1.89c-2.14-1.32-3.7-4.45-3.7-8.48l.08-6.09Z"/><path class="cls-6" d="M204,355.49h8.31a1.52,1.52,0,0,1,1.57,1.57h0a1.52,1.52,0,0,1-1.57,1.56H204a1.51,1.51,0,0,1-1.56-1.56h0A1.63,1.63,0,0,1,204,355.49Z"/><path class="cls-8" d="M247.62,355.49h-28a1.52,1.52,0,0,0-1.57,1.57h0a1.52,1.52,0,0,0,1.57,1.56h28a1.52,1.52,0,0,0,1.57-1.56h0A1.57,1.57,0,0,0,247.62,355.49Z"/><path class="cls-6" d="M204,363.81h43.61a1.51,1.51,0,0,1,1.57,1.56h0a1.52,1.52,0,0,1-1.57,1.56H204a1.51,1.51,0,0,1-1.56-1.56h0A1.56,1.56,0,0,1,204,363.81Z"/><path class="cls-8" d="M233.06,372.12H213.31a1.51,1.51,0,0,0-1.56,1.56h0a1.5,1.5,0,0,0,1.56,1.56h19.75a1.51,1.51,0,0,0,1.56-1.56h0A1.51,1.51,0,0,0,233.06,372.12Z"/><path class="cls-6" d="M240.3,372.12H262a1.51,1.51,0,0,1,1.56,1.56h0a1.51,1.51,0,0,1-1.56,1.56H240.3a1.51,1.51,0,0,1-1.56-1.56h0A1.56,1.56,0,0,1,240.3,372.12Z"/><path class="cls-6" d="M225.9,380.43h44.6a1.51,1.51,0,0,1,1.56,1.56h0a1.51,1.51,0,0,1-1.56,1.57H225.9a1.51,1.51,0,0,1-1.56-1.57h0A1.51,1.51,0,0,1,225.9,380.43Z"/><path class="cls-8" d="M258,388.74H225.82a1.52,1.52,0,0,0-1.57,1.56h0a1.52,1.52,0,0,0,1.57,1.57H258a1.52,1.52,0,0,0,1.57-1.57h0A1.52,1.52,0,0,0,258,388.74Z"/><path class="cls-6" d="M213.31,397H262a1.51,1.51,0,0,1,1.56,1.56h0A1.52,1.52,0,0,1,262,400.1H213.31a1.51,1.51,0,0,1-1.56-1.57h0A1.62,1.62,0,0,1,213.31,397Z"/><path class="cls-6" d="M204,404.29h24.85a1.52,1.52,0,0,1,1.57,1.57h0a1.52,1.52,0,0,1-1.57,1.56H204a1.51,1.51,0,0,1-1.56-1.56h0A1.56,1.56,0,0,1,204,404.29Z"/><path class="cls-1" d="M121.32,459.1H433.76a2.89,2.89,0,0,1,2.89,2.89v0A17.69,17.69,0,0,1,419,479.67H136.11A17.69,17.69,0,0,1,118.43,462v0a2.89,2.89,0,0,1,2.89-2.89Z"/><path class="cls-6" d="M382.82,315.61a2.12,2.12,0,0,1,2.12,2.12v121a2.12,2.12,0,0,1-2.12,2.11H172.08a2.12,2.12,0,0,1-2.11-2.11v-121a2.12,2.12,0,0,1,2.11-2.12H382.82m0-2H172.08a4.11,4.11,0,0,0-4.11,4.12v121a4.11,4.11,0,0,0,4.11,4.11H382.82a4.11,4.11,0,0,0,4.12-4.11v-121a4.11,4.11,0,0,0-4.12-4.12Z"/></g></g></svg>