<svg xmlns="http://www.w3.org/2000/svg" viewBox="0 0 729.3 584.3"><defs><style>.cls-1{fill:#0d0d0d;}.cls-2,.cls-3,.cls-4,.cls-5,.cls-7{fill:none;stroke-width:2px;}.cls-2,.cls-3,.cls-4,.cls-5{stroke:#171717;}.cls-2,.cls-4{stroke-miterlimit:10;}.cls-3,.cls-5,.cls-7{stroke-linejoin:round;}.cls-4,.cls-5,.cls-7{stroke-linecap:round;}.cls-6{fill:#171717;}.cls-7{stroke:#ff1e56;}.cls-8{fill:#ff1e56;}</style></defs><title>Asset 24</title><g id="Layer_2" data-name="Layer 2"><g id="Layer_2-2" data-name="Layer 2"><path class="cls-1" d="M304.44,557.9c-1.7,0-1.7,1.4-1.7,2.7h0a2.65,2.65,0,0,0,2.9,2.5h61.5a2.71,2.71,0,0,0,2.9-2.5h0c0-1.2,0-2.6-2-2.6a3.08,3.08,0,0,0-.9.1h-61.5a6,6,0,0,0-1.2-.2Z"/><polygon class="cls-2" points="677.3 524 685 523 691 571.3 682.8 572.4 677.3 524"/><path class="cls-2" d="M685,523c.2-.2.2-.5.3-.7v-.4l-1.2-8.3a1.86,1.86,0,0,0-2-1.4l-2.6.3-2.6.3c-.7.4-1,.6-1,2l.7,8a2.12,2.12,0,0,0,.3.7c.1.2.2.2.3.3"/><path class="cls-1" d="M464.8,464a3.67,3.67,0,0,1,3.7,2.6v-9.5a12.61,12.61,0,0,0-2.8-.4h-1a2.75,2.75,0,0,0-3.1,3.1v1.1C461.7,463,462.8,464,464.8,464Z"/><path class="cls-1" d="M468.5,509.4a3.75,3.75,0,0,1-3.7,2.6,2.75,2.75,0,0,0-3.1,3.1v1.1a2.75,2.75,0,0,0,3.1,3.1h1a13.51,13.51,0,0,0,2.8-.4l-.1-9.5Z"/><path class="cls-2" d="M476.3,357.7H197.6a16.61,16.61,0,0,0-16.8,16.48V557.9H493.1V374.18a16.61,16.61,0,0,0-16.8-16.48Z"/><path class="cls-2" d="M369.3,405.5H244.4a8.6,8.6,0,0,0-8.6,8.6v96.5a8.6,8.6,0,0,0,8.6,8.6H369.2a8.6,8.6,0,0,0,8.6-8.6V414.1a8.45,8.45,0,0,0-8.5-8.6Z"/><line class="cls-3" x1="235.8" y1="423.4" x2="377.9" y2="423.4"/><path class="cls-4" d="M535.5,582.9a25,25,0,0,1,50,0"/><line class="cls-4" x1="135.2" y1="583.2" x2="694.7" y2="583.2"/><line class="cls-4" x1="706.2" y1="583.2" x2="728.3" y2="583.2"/><line class="cls-4" x1="25.1" y1="583.2" x2="1" y2="583.2"/><line class="cls-4" x1="36.2" y1="583.2" x2="123.1" y2="583.2"/><path class="cls-2" d="M130.8,473.3h-86c-5.6,0-10.2,3.9-10.2,8.7v2.4c0,4.8,4.5,8.7,10.2,8.7h86c5.6,0,10.2-3.9,10.2-8.7V482c0-4.8-4.6-8.7-10.2-8.7Z"/><path class="cls-2" d="M125,515.2H50.5a3.88,3.88,0,0,0-4,4.2l5,36.1a3.92,3.92,0,0,0,4,3.3h64.4a4,4,0,0,0,4-3.3l5.1-36.1a4,4,0,0,0-4-4.2Z"/><line class="cls-3" x1="51.3" y1="493.2" x2="53.5" y2="515.2"/><line class="cls-3" x1="124.4" y1="493.2" x2="121.7" y2="515.2"/><polygon class="cls-3" points="54.9 473.3 56.4 461.6 90.7 461.6 119.1 461.6 120.6 473.3 54.9 473.3"/><polyline class="cls-5" points="129.8 420.9 95 429.5 87.8 461.6"/><path class="cls-3" d="M59.2,558.9l2.6,19a6,6,0,0,0,6,5.3l39.1.1a6.14,6.14,0,0,0,6.1-5.2l2.8-19.2Z"/><circle class="cls-1" cx="336.3" cy="370.3" r="6.6"/><circle class="cls-6" cx="249.3" cy="415.4" r="3"/><circle class="cls-6" cx="257.5" cy="415.4" r="3"/><circle class="cls-6" cx="265.2" cy="415.4" r="3"/><path class="cls-2" d="M649,466.6H623.3a8.24,8.24,0,0,0-8,8.4v.7a8.24,8.24,0,0,0,8,8.4H649a8.24,8.24,0,0,0,8-8.4V475a8.24,8.24,0,0,0-8-8.4Z"/><path class="cls-5" d="M615.3,475.3h-8.1a9.28,9.28,0,0,0-9.3,9.3v89.3a9.28,9.28,0,0,0,9.3,9.3h59.4a9.28,9.28,0,0,0,9.3-9.3V484.7a9.28,9.28,0,0,0-9.3-9.3h-9.7"/><path class="cls-2" d="M692.5,571.8a1.57,1.57,0,0,0-1.5-.5h0l-8.2,1.1h0a1.6,1.6,0,0,0-1.3.9,1.37,1.37,0,0,0,.2,1.5l3.1,4.3,2.1,2.9a1.75,1.75,0,0,0,1.4.7h.2a1.43,1.43,0,0,0,1.3-1l.9-2.6,2.1-5.7A2,2,0,0,0,692.5,571.8Z"/><path class="cls-2" d="M636.2,489.7a9.3,9.3,0,1,0,9.3,9.3,9.35,9.35,0,0,0-9.3-9.3Z"/><line class="cls-4" x1="609.2" y1="520.3" x2="627.3" y2="520.3"/><polyline class="cls-7" points="637.5 542.3 641.4 547.5 654.6 538"/><line class="cls-5" x1="609.2" y1="542.7" x2="627.3" y2="542.7"/><line class="cls-4" x1="609.2" y1="565.1" x2="627.3" y2="565.1"/><polyline class="cls-7" points="637.5 519.7 641.4 524.9 654.6 515.4"/><path class="cls-2" d="M418.5,168.4a4.35,4.35,0,0,1-3.1,1.8H301.1a4.78,4.78,0,0,1-4.7-4.7v-.6c3.8-31.8,30.2-55.9,61.6-55.9s57.8,24,61.5,55.9A4.43,4.43,0,0,1,418.5,168.4Z"/><path class="cls-4" d="M212.8,289.3c-2.3,3.1-11.5,15.6-13.8,18.8"/><path class="cls-4" d="M248.5,240.7c-10.2,13.8-12,16.3-22.1,30.1"/><path class="cls-4" d="M287.1,188c-3.6,5-22.9,31.2-26.5,36.1"/><path class="cls-4" d="M309.6,289.3c-4.3,17.6-1,3.9-5.3,21.5"/><path class="cls-4" d="M321.3,240.7c-5,21.3-5.6,22.3-8.9,34.9"/><path class="cls-4" d="M334.4,188c-.9,3.7-8.1,33.3-9,36.9"/><path class="cls-4" d="M407.7,294.9c4.3,17.6-.4-1.7,3.9,15.9"/><path class="cls-4" d="M396.4,248.5c4.3,17.6,2.3,9.5,6.6,27.1"/><path class="cls-4" d="M381.6,188c2.5,10.1,8.8,36.1,11.3,46.1"/><path class="cls-4" d="M495.3,278.6c5.9,8.1,17.6,24,23.6,32.1"/><path class="cls-4" d="M462.7,234.2c6.4,8.7,16.1,21.9,22.4,30.6"/><path class="cls-4" d="M428.8,188c4.5,6.1,18.7,25.5,23.2,31.6"/><line class="cls-2" x1="357.9" y1="109.1" x2="357.9"/><path class="cls-1" d="M436.2,500.4c0-3.3-1.2-5.5-3.8-6.9-1.8-1-2.6-1.7-2.6-3.4v-2.9c0-2,.9-2.5,2.5-3.5,2.6-1.1,3.9-3.5,3.9-7v-6.3c0-5,1.8-8.8,4.5-10.3a12.93,12.93,0,0,1,6.9-2.3h1a2.75,2.75,0,0,1,3.1,3.1V462a2.8,2.8,0,0,1-3.1,3.1c-2.9,0-4.3,2.1-4.3,6.3v7.8a9.8,9.8,0,0,1-5.5,9.2l-.7.2v.2a6.06,6.06,0,0,1,2.1,1.1c1.8,1.1,4,3.7,4,8.3v8.7c0,4.1,1.4,6.2,4.3,6.2a2.75,2.75,0,0,1,3.1,3.1v1.1a2.75,2.75,0,0,1-3.1,3.1h-1a13.22,13.22,0,0,1-6.9-2.3c-2.6-1.6-4.5-5.4-4.5-10.3l.1-7.4Z"/><path class="cls-6" d="M247.7,432h10.1a1.84,1.84,0,0,1,1.9,1.9h0a1.84,1.84,0,0,1-1.9,1.9H247.7a1.84,1.84,0,0,1-1.9-1.9h0A2,2,0,0,1,247.7,432Z"/><path class="cls-8" d="M300.7,432h-34a1.84,1.84,0,0,0-1.9,1.9h0a1.84,1.84,0,0,0,1.9,1.9h34a1.84,1.84,0,0,0,1.9-1.9h0A1.9,1.9,0,0,0,300.7,432Z"/><path class="cls-6" d="M247.7,442.1h53a1.84,1.84,0,0,1,1.9,1.9h0a1.84,1.84,0,0,1-1.9,1.9h-53a1.84,1.84,0,0,1-1.9-1.9h0A1.9,1.9,0,0,1,247.7,442.1Z"/><path class="cls-8" d="M283,452.2H259a1.84,1.84,0,0,0-1.9,1.9h0A1.84,1.84,0,0,0,259,456h24a1.84,1.84,0,0,0,1.9-1.9h0A1.84,1.84,0,0,0,283,452.2Z"/><path class="cls-6" d="M291.8,452.2h26.4a1.84,1.84,0,0,1,1.9,1.9h0a1.84,1.84,0,0,1-1.9,1.9H291.8a1.84,1.84,0,0,1-1.9-1.9h0A1.9,1.9,0,0,1,291.8,452.2Z"/><path class="cls-6" d="M274.3,462.3h54.2a1.84,1.84,0,0,1,1.9,1.9h0a1.84,1.84,0,0,1-1.9,1.9H274.3a1.84,1.84,0,0,1-1.9-1.9h0A1.84,1.84,0,0,1,274.3,462.3Z"/><path class="cls-8" d="M313.3,472.4H274.2a1.84,1.84,0,0,0-1.9,1.9h0a1.84,1.84,0,0,0,1.9,1.9h39.1a1.84,1.84,0,0,0,1.9-1.9h0A1.84,1.84,0,0,0,313.3,472.4Z"/><path class="cls-6" d="M259,482.4h59.2a1.84,1.84,0,0,1,1.9,1.9h0a1.84,1.84,0,0,1-1.9,1.9H259a1.84,1.84,0,0,1-1.9-1.9h0A2,2,0,0,1,259,482.4Z"/><path class="cls-6" d="M247.7,491.3h30.2a1.84,1.84,0,0,1,1.9,1.9h0a1.84,1.84,0,0,1-1.9,1.9H247.7a1.84,1.84,0,0,1-1.9-1.9h0A1.9,1.9,0,0,1,247.7,491.3Z"/><path class="cls-2" d="M147.21,557.9H526.89a3.51,3.51,0,0,1,3.51,3.51v0a21.49,21.49,0,0,1-21.49,21.49H165.19a21.49,21.49,0,0,1-21.49-21.49v0A3.51,3.51,0,0,1,147.21,557.9Z"/><path class="cls-6" d="M465.88,383.1a2.12,2.12,0,0,1,2.12,2.12V534a2.12,2.12,0,0,1-2.12,2.12H208A2.12,2.12,0,0,1,205.9,534V385.22A2.12,2.12,0,0,1,208,383.1H465.88m0-2H208a4.11,4.11,0,0,0-4.12,4.12V534A4.11,4.11,0,0,0,208,538.1H465.88A4.11,4.11,0,0,0,470,534V385.22a4.11,4.11,0,0,0-4.12-4.12Z"/></g></g></svg>