<svg xmlns="http://www.w3.org/2000/svg" viewBox="0 0 58 58"><defs><style>.cls-1{fill:#171717;}.cls-2{fill:#2f2f2f;}.cls-3,.cls-4{fill:none;stroke-width:2px;}.cls-3{stroke:#2f2f2f;stroke-miterlimit:10;}.cls-4{stroke:#ff1e56;stroke-linecap:round;stroke-linejoin:round;}.cls-5{fill:#ff1e56;}</style></defs><title>illu</title><g id="Layer_4" data-name="Layer 4"><rect class="cls-1" x="2.01" y="42.02" width="21.85" height="9.54"/><path class="cls-2" d="M54.35,27.89a.89.89,0,0,1,.89.89V52.12a3.29,3.29,0,0,1-3.3,3.29H34.08a3.29,3.29,0,0,1-3.29-3.29V28.78a.89.89,0,0,1,.88-.89H54.35m0-2H31.67a2.89,2.89,0,0,0-2.88,2.89V52.12a5.3,5.3,0,0,0,5.29,5.29H51.94a5.3,5.3,0,0,0,5.3-5.29V28.78a2.9,2.9,0,0,0-2.89-2.89Z"/><path class="cls-3" d="M8.78,29.69h8.74a2,2,0,0,1,2,2v3.63a.88.88,0,0,1-.88.88H7.7a.88.88,0,0,1-.88-.88V31.65A2,2,0,0,1,8.78,29.69Z"/><path class="cls-2" d="M33.33,13.61a29.83,29.83,0,0,1,5.44,9.08c.41,1,.78,2.13,1.09,3.2H36.42c-.29-.64-.57-1.29-.83-1.94a29.88,29.88,0,0,1-2.26-10.34m-1.54-3.9c-1,3.53-.37,9.15,1.94,15,.44,1.12.93,2.2,1.44,3.21h7.24A35.5,35.5,0,0,0,40.62,22c-2.3-5.82-5.69-10.34-8.83-12.24Z"/><polygon class="cls-2" points="47.67 9.36 52.2 0.74 53.67 10.37 47.67 9.36"/><path class="cls-2" d="M26.7,8.14a11.38,11.38,0,0,0,.57,3.71c2.17,6.82,7.27,3.74,7.27,3.74s4.17-1.6,2.07-6.21c-1.44-3.14-4-2.89-5.49-4.31"/><path class="cls-2" d="M31.12,5.07A4.83,4.83,0,0,1,29.8,1.52a8.84,8.84,0,0,0-3.1,6.62"/><path class="cls-2" d="M49.31,11.67l2,.34L49,25.89H46.92l2.39-14.22M47.67,9.36,44.55,27.89h6.17l3-17.52-6-1Z"/><path class="cls-4" d="M20.2,42V37.38H16.49v2.11a1.26,1.26,0,0,1,1.26-1.26,2.33,2.33,0,0,1,2.45,2.05"/><rect class="cls-5" x="19.18" y="37.78" width="0.42" height="0.42"/><path class="cls-3" d="M21.85,56.48H4a2,2,0,0,1-2-2V38.89a2.74,2.74,0,0,1,2.73-2.73H21.13a2.73,2.73,0,0,1,2.73,2.73V54.47A2,2,0,0,1,21.85,56.48Z"/><path class="cls-3" d="M46.32,45.87a3.31,3.31,0,0,1-6.62,0"/><path class="cls-3" d="M34.53,38.64a2.35,2.35,0,1,1,4.69,0"/><path class="cls-3" d="M46.32,38.31a2.35,2.35,0,0,1,4.7,0"/></g></svg>