<svg xmlns="http://www.w3.org/2000/svg" viewBox="0 0 779.82 316.24"><defs><style>.cls-1,.cls-4{fill:none;stroke-width:2px;}.cls-1{stroke:#171717;stroke-miterlimit:10;}.cls-2{fill:#0d0d0d;}.cls-3{fill:#171717;}.cls-4{stroke:#ff1e56;stroke-linecap:round;stroke-linejoin:round;}.cls-5{fill:#ff1e56;}</style></defs><title>illustration</title><g id="Layer_2" data-name="Layer 2"><g id="Layer_1-2" data-name="Layer 1"><rect class="cls-1" x="1" y="1" width="8.12" height="49.25"/></g><g id="Layer_4" data-name="Layer 4"><rect class="cls-2" x="690.56" y="290.53" width="35.82" height="15.65"/><path class="cls-3" d="M776.94,269.11a.88.88,0,0,1,.88.88v40.95a3.29,3.29,0,0,1-3.29,3.3H741a3.3,3.3,0,0,1-3.3-3.3V270a.89.89,0,0,1,.89-.88h38.31m0-2H738.63a2.9,2.9,0,0,0-2.89,2.88v40.95a5.31,5.31,0,0,0,5.3,5.3h33.49a5.3,5.3,0,0,0,5.29-5.3V270a2.89,2.89,0,0,0-2.88-2.88Z"/><path class="cls-1" d="M700.4,270.31h16.84a2,2,0,0,1,2,2V280a.88.88,0,0,1-.88.88h-19a.88.88,0,0,1-.88-.88v-7.77A2,2,0,0,1,700.4,270.31Z"/><path class="cls-3" d="M740.77,242.8c4.18,3.63,8.33,10,11.24,17.31a58.23,58.23,0,0,1,2.27,7h-8.11c-.63-1.3-1.22-2.64-1.75-4-2.91-7.35-4.22-14.8-3.65-20.31m-1.39-3.5c-1.61,5.79-.6,15,3.18,24.55.73,1.84,1.52,3.6,2.37,5.26H756.8a59.69,59.69,0,0,0-2.93-9.74c-3.78-9.54-9.35-17-14.49-20.07Z"/><polygon class="cls-3" points="765.42 238.73 772.85 224.59 775.25 240.39 765.42 238.73"/><path class="cls-3" d="M731,236.72a18.79,18.79,0,0,0,.93,6.09C735.53,254,743.89,249,743.89,249s6.84-2.64,3.39-10.18c-2.36-5.17-6.47-4.75-9-7.08"/><path class="cls-3" d="M738.28,231.69c-1.17-1.08-2-2.74-2.17-5.81A14.46,14.46,0,0,0,731,236.72"/><path class="cls-3" d="M767.06,241l5.88,1-4.22,25.08h-6.05L767.06,241m-1.64-2.31-5.11,30.38h10.11l4.83-28.72-9.83-1.66Z"/><path class="cls-4" d="M720.38,290.53v-7.6H714.3v3.46a2.07,2.07,0,0,1,2.06-2.07s3.6-.16,4,3.36"/><rect class="cls-5" x="718.71" y="283.58" width="0.68" height="0.68"/><path class="cls-1" d="M723.09,314.24H693.86a3.3,3.3,0,0,1-3.3-3.3V285.41a4.48,4.48,0,0,1,4.48-4.48h26.87a4.48,4.48,0,0,1,4.47,4.48v25.53A3.29,3.29,0,0,1,723.09,314.24Z"/><path class="cls-1" d="M763.21,298.59a5.43,5.43,0,0,1-10.86,0"/><path class="cls-1" d="M743.87,286.73a3.85,3.85,0,0,1,7.7,0"/><path class="cls-1" d="M763.21,286.19a3.85,3.85,0,1,1,7.7,0"/></g></g></svg>