<svg xmlns="http://www.w3.org/2000/svg" viewBox="0 0 90.26 91.65"><defs><style>.cls-1{fill:#0d0d0d;}.cls-2{fill:#171717;}.cls-3,.cls-4{fill:none;stroke-width:2px;}.cls-3{stroke:#171717;stroke-miterlimit:10;}.cls-4{stroke:#ff1e56;stroke-linecap:round;stroke-linejoin:round;}.cls-5{fill:#ff1e56;}</style></defs><title>Asset 27</title><g id="Layer_2" data-name="Layer 2"><g id="Layer_4" data-name="Layer 4"><rect class="cls-1" x="1" y="65.94" width="35.82" height="15.65"/><path class="cls-2" d="M87.38,44.52a.88.88,0,0,1,.88.89V86.35A3.29,3.29,0,0,1,85,89.65H51.48a3.3,3.3,0,0,1-3.3-3.3V45.41a.89.89,0,0,1,.88-.89H87.38m0-2H49.06a2.9,2.9,0,0,0-2.88,2.89V86.35a5.31,5.31,0,0,0,5.3,5.3H85a5.3,5.3,0,0,0,5.29-5.3V45.41a2.89,2.89,0,0,0-2.88-2.89Z"/><path class="cls-3" d="M10.84,45.73H27.69a2,2,0,0,1,2,2v7.77a.88.88,0,0,1-.88.88h-19a.88.88,0,0,1-.88-.88V47.69A2,2,0,0,1,10.84,45.73Z"/><path class="cls-2" d="M51.21,18.21c4.18,3.63,8.33,10,11.24,17.31a58.23,58.23,0,0,1,2.27,7H56.61c-.63-1.3-1.22-2.64-1.75-4-2.91-7.35-4.22-14.8-3.65-20.31m-1.39-3.5c-1.61,5.8-.6,15,3.18,24.55.73,1.84,1.52,3.6,2.37,5.26H67.24a59.69,59.69,0,0,0-2.93-9.74c-3.78-9.54-9.35-17-14.49-20.07Z"/><polygon class="cls-2" points="75.86 14.14 83.29 0 85.69 15.8 75.86 14.14"/><path class="cls-2" d="M41.48,12.13a18.79,18.79,0,0,0,.93,6.09C46,29.4,54.33,24.36,54.33,24.36s6.84-2.64,3.39-10.18c-2.36-5.17-6.47-4.75-9-7.08"/><path class="cls-2" d="M48.72,7.1c-1.17-1.08-2-2.74-2.17-5.81a14.46,14.46,0,0,0-5.07,10.84"/><path class="cls-2" d="M77.5,16.45l5.88,1L79.16,42.52h-6L77.5,16.45m-1.64-2.31L70.75,44.52h10.1L85.69,15.8l-9.83-1.66Z"/><path class="cls-4" d="M30.82,65.94v-7.6H24.74V61.8a2.06,2.06,0,0,1,2.06-2.06s3.6-.17,4,3.35"/><rect class="cls-5" x="29.15" y="59" width="0.68" height="0.68"/><path class="cls-3" d="M33.53,89.65H4.29A3.29,3.29,0,0,1,1,86.35V60.82a4.48,4.48,0,0,1,4.48-4.48H32.35a4.48,4.48,0,0,1,4.47,4.48V86.35A3.29,3.29,0,0,1,33.53,89.65Z"/><path class="cls-3" d="M73.65,74a5.43,5.43,0,0,1-10.86,0"/><path class="cls-3" d="M54.31,62.14a3.85,3.85,0,0,1,7.7,0"/><path class="cls-3" d="M73.65,61.6a3.85,3.85,0,0,1,7.7,0"/></g></g></svg>