<svg xmlns="http://www.w3.org/2000/svg" viewBox="0 0 484.4 432"><defs><style>.cls-1,.cls-3,.cls-4{fill:none;stroke-linecap:round;stroke-width:2px;}.cls-1,.cls-4{stroke:#2f2f2f;}.cls-1,.cls-3{stroke-linejoin:round;}.cls-2{fill:#171717;}.cls-3{stroke:#ff1e56;}.cls-4{stroke-miterlimit:10;}.cls-5{fill:#ff1e56;}.cls-6{fill:#2f2f2f;}</style></defs><title>mail</title><g id="Layer_2" data-name="Layer 2"><g id="Layer_3" data-name="Layer 3"><rect class="cls-1" x="302.54" y="197.62" width="76.05" height="64.23"/><path class="cls-1" d="M302.54,261.85h-11.3a1,1,0,0,1-1-1v-14.5a1,1,0,0,1,1-1h11.3"/><path class="cls-1" d="M378.6,245.39h11.3a1,1,0,0,1,1,1v14.5a1,1,0,0,1-1,1H378.6"/><path class="cls-1" d="M378.6,218.16v43.69H302.54v-43.7a26.26,26.26,0,0,0-26.2,26.25V426.83a4.18,4.18,0,0,0,4.18,4.17h17a4.17,4.17,0,0,0,4.17-4.17V399H379v27.83a4.17,4.17,0,0,0,4.17,4.17h17a4.18,4.18,0,0,0,4.18-4.17V244.4A26.26,26.26,0,0,0,378.6,218.16Zm5.21,164.15H297.33a3.13,3.13,0,0,1-3.13-3.13V330.49H387v48.69A3.14,3.14,0,0,1,383.81,382.31Z"/><path class="cls-1" d="M389.67,330.49h-98l.72-11.31a1.76,1.76,0,0,1,1.73-1.45h93a1.76,1.76,0,0,1,1.73,1.45Z"/><circle class="cls-1" cx="368.25" cy="340.22" r="3.3"/><circle class="cls-1" cx="349.64" cy="340.22" r="3.3"/><circle class="cls-1" cx="331.04" cy="340.22" r="3.3"/><circle class="cls-1" cx="312.43" cy="340.22" r="3.3"/><circle class="cls-1" cx="368.25" cy="356.4" r="3.3"/><circle class="cls-1" cx="349.64" cy="356.4" r="3.3"/><circle class="cls-1" cx="331.04" cy="356.4" r="3.3"/><circle class="cls-1" cx="312.43" cy="356.4" r="3.3"/><circle class="cls-1" cx="368.25" cy="372.57" r="3.3"/><circle class="cls-1" cx="349.64" cy="372.57" r="3.3"/><circle class="cls-1" cx="331.04" cy="372.57" r="3.3"/><circle class="cls-1" cx="312.43" cy="372.57" r="3.3"/><path class="cls-1" d="M144.41,202.61h25a0,0,0,0,1,0,0V426.76a4.24,4.24,0,0,1-4.24,4.24H148.65a4.24,4.24,0,0,1-4.24-4.24V202.61a0,0,0,0,1,0,0Z"/><path class="cls-1" d="M98.66,33H232.94A46.71,46.71,0,0,1,279.65,79.7V202.61a0,0,0,0,1,0,0H52a0,0,0,0,1,0,0V79.7A46.71,46.71,0,0,1,98.66,33Z"/><path class="cls-1" d="M233.62,33h0a46,46,0,0,1,46,46V202.61a0,0,0,0,1,0,0H187.6a0,0,0,0,1,0,0V79a46,46,0,0,1,46-46Z"/><path class="cls-1" d="M201.42,187.35V85c0-18.19,13.85-33.5,31.43-33.93,18.11-.44,33,14.67,33,33.31v103a1.78,1.78,0,0,1-1.75,1.81H203.18A1.79,1.79,0,0,1,201.42,187.35Z"/><polyline class="cls-1" points="76.01 1 113.76 1 113.76 85.01"/><rect class="cls-2" x="216.87" y="83.66" width="33.5" height="11.25" rx="3.21"/><path class="cls-3" d="M106.13,135.89h40.31a2.34,2.34,0,0,1,2.34,2.34V162a2.3,2.3,0,0,1-2.3,2.3H106.09a2.3,2.3,0,0,1-2.3-2.3V138.22A2.34,2.34,0,0,1,106.13,135.89Z"/><path class="cls-3" d="M104.53,136.5l18.11,15a5.72,5.72,0,0,0,7.29,0l18.1-15"/><circle class="cls-2" cx="113.76" cy="85.01" r="12.52"/><line class="cls-4" x1="245.74" y1="431" x2="424.51" y2="431"/><line class="cls-4" x1="1" y1="431" x2="216.52" y2="431"/><line class="cls-4" x1="441.55" y1="431" x2="483.4" y2="431"/><path class="cls-5" d="M336.53,211.35H312.88a1.81,1.81,0,0,0-1.87,1.87h0a1.81,1.81,0,0,0,1.87,1.87h23.65a1.81,1.81,0,0,0,1.87-1.87h0A1.81,1.81,0,0,0,336.53,211.35Z"/><path class="cls-6" d="M345.2,211.35h23.06a1.81,1.81,0,0,1,1.87,1.87h0a1.81,1.81,0,0,1-1.87,1.87H345.2a1.81,1.81,0,0,1-1.87-1.87h0A1.87,1.87,0,0,1,345.2,211.35Z"/><path class="cls-6" d="M328,221.3h29.76a1.81,1.81,0,0,1,1.87,1.87h0a1.81,1.81,0,0,1-1.87,1.87H328a1.8,1.8,0,0,1-1.87-1.87h0A1.81,1.81,0,0,1,328,221.3Z"/><path class="cls-5" d="M366.39,231.25H347.57a1.81,1.81,0,0,0-1.87,1.87h0a1.81,1.81,0,0,0,1.87,1.88h18.82a1.82,1.82,0,0,0,1.87-1.88h0A1.81,1.81,0,0,0,366.39,231.25Z"/><path class="cls-6" d="M312.88,241.11h50.46a1.81,1.81,0,0,1,1.87,1.87h0a1.81,1.81,0,0,1-1.87,1.87H312.88A1.81,1.81,0,0,1,311,243h0A1.93,1.93,0,0,1,312.88,241.11Z"/></g></g></svg>