<svg xmlns="http://www.w3.org/2000/svg" viewBox="0 0 491.53 438.35" height="300"><defs><style>.cls-1,.cls-3,.cls-4{fill:none;stroke-linecap:round;stroke-width:2px;}.cls-1,.cls-4{stroke:#171717;}.cls-1,.cls-3{stroke-linejoin:round;}.cls-2{fill:#0d0d0d;}.cls-3{stroke:#ff1e56;}.cls-4{stroke-miterlimit:10;}.cls-5{fill:#ff1e56;}.cls-6{fill:#171717;}</style></defs><title>mail</title><g id="Layer_2" data-name="Layer 2"><g id="Layer_3" data-name="Layer 3"><rect class="cls-1" x="307" y="200.53" width="77.18" height="65.18"/><path class="cls-1" d="M307,265.71H295.53a1,1,0,0,1-1-1V250a1,1,0,0,1,1-1H307"/><path class="cls-1" d="M384.18,249h11.47a1,1,0,0,1,1,1v14.71a1,1,0,0,1-1,1H384.18"/><path class="cls-1" d="M384.18,221.37v44.34H307V221.35A26.65,26.65,0,0,0,280.41,248V433.12a4.23,4.23,0,0,0,4.24,4.23h17.29a4.23,4.23,0,0,0,4.24-4.23V404.88h78.35v28.24a4.23,4.23,0,0,0,4.23,4.23h17.3a4.23,4.23,0,0,0,4.23-4.23V248A26.63,26.63,0,0,0,384.18,221.37Zm5.29,166.57H301.71a3.18,3.18,0,0,1-3.18-3.18V335.35h94.12v49.41A3.18,3.18,0,0,1,389.47,387.94Z"/><path class="cls-1" d="M395.41,335.35H296l.74-11.47a1.78,1.78,0,0,1,1.75-1.47h94.43a1.78,1.78,0,0,1,1.75,1.47Z"/><circle class="cls-1" cx="373.68" cy="345.24" r="3.35"/><circle class="cls-1" cx="354.79" cy="345.24" r="3.35"/><circle class="cls-1" cx="335.91" cy="345.24" r="3.35"/><circle class="cls-1" cx="317.03" cy="345.24" r="3.35"/><circle class="cls-1" cx="373.68" cy="361.65" r="3.35"/><circle class="cls-1" cx="354.79" cy="361.65" r="3.35"/><circle class="cls-1" cx="335.91" cy="361.65" r="3.35"/><circle class="cls-1" cx="317.03" cy="361.65" r="3.35"/><circle class="cls-1" cx="373.68" cy="378.06" r="3.35"/><circle class="cls-1" cx="354.79" cy="378.06" r="3.35"/><circle class="cls-1" cx="335.91" cy="378.06" r="3.35"/><circle class="cls-1" cx="317.03" cy="378.06" r="3.35"/><path class="cls-1" d="M146.53,205.59h25.41a0,0,0,0,1,0,0V433.11a4.24,4.24,0,0,1-4.24,4.24H150.77a4.24,4.24,0,0,1-4.24-4.24V205.59A0,0,0,0,1,146.53,205.59Z"/><path class="cls-1" d="M99.41,33.47H237.06a46.71,46.71,0,0,1,46.71,46.71V205.59a0,0,0,0,1,0,0H52.71a0,0,0,0,1,0,0V80.18A46.71,46.71,0,0,1,99.41,33.47Z"/><path class="cls-1" d="M237.06,33.47h0a46.71,46.71,0,0,1,46.71,46.71V205.59a0,0,0,0,1,0,0H190.35a0,0,0,0,1,0,0V80.18A46.71,46.71,0,0,1,237.06,33.47Z"/><path class="cls-1" d="M204.38,190.1V86.27c0-18.47,14.05-34,31.89-34.44,18.38-.45,33.47,14.89,33.47,33.8V190.1a1.81,1.81,0,0,1-1.79,1.84H206.16A1.81,1.81,0,0,1,204.38,190.1Z"/><polyline class="cls-1" points="77.12 1 115.43 1 115.43 86.25"/><rect class="cls-2" x="220.06" y="84.88" width="34" height="11.41" rx="3.21"/><path class="cls-3" d="M107.65,137.88h41a2.34,2.34,0,0,1,2.34,2.34v24.15a2.3,2.3,0,0,1-2.3,2.3h-41a2.3,2.3,0,0,1-2.3-2.3V140.22A2.34,2.34,0,0,1,107.65,137.88Z"/><path class="cls-3" d="M106.06,138.51l18.38,15.2a5.78,5.78,0,0,0,7.39,0L150.2,138.5"/><circle class="cls-2" cx="115.43" cy="86.25" r="12.71"/><line class="cls-4" x1="249.35" y1="437.35" x2="430.76" y2="437.35"/><line class="cls-4" x1="1" y1="437.35" x2="219.71" y2="437.35"/><line class="cls-4" x1="448.06" y1="437.35" x2="490.53" y2="437.35"/><path class="cls-5" d="M341.49,214.45h-24a1.84,1.84,0,0,0-1.9,1.9h0a1.84,1.84,0,0,0,1.9,1.9h24a1.84,1.84,0,0,0,1.9-1.9h0A1.84,1.84,0,0,0,341.49,214.45Z"/><path class="cls-6" d="M350.29,214.45h23.4a1.84,1.84,0,0,1,1.9,1.9h0a1.84,1.84,0,0,1-1.9,1.9h-23.4a1.84,1.84,0,0,1-1.9-1.9h0A1.9,1.9,0,0,1,350.29,214.45Z"/><path class="cls-6" d="M332.79,224.55H363a1.84,1.84,0,0,1,1.9,1.9h0a1.84,1.84,0,0,1-1.9,1.9h-30.2a1.84,1.84,0,0,1-1.9-1.9h0A1.84,1.84,0,0,1,332.79,224.55Z"/><path class="cls-5" d="M371.79,234.65h-19.1a1.84,1.84,0,0,0-1.9,1.9h0a1.84,1.84,0,0,0,1.9,1.9h19.1a1.84,1.84,0,0,0,1.9-1.9h0A1.84,1.84,0,0,0,371.79,234.65Z"/><path class="cls-6" d="M317.49,244.65h51.2a1.84,1.84,0,0,1,1.9,1.9h0a1.84,1.84,0,0,1-1.9,1.9h-51.2a1.84,1.84,0,0,1-1.9-1.9h0A2,2,0,0,1,317.49,244.65Z"/></g></g></svg>